<?xml version="1.0" encoding="utf-8"?>
<!-- Generator: Adobe Illustrator 24.1.2, SVG Export Plug-In . SVG Version: 6.00 Build 0)  -->
<svg version="1.1" id="Layer_1" xmlns="http://www.w3.org/2000/svg" xmlns:xlink="http://www.w3.org/1999/xlink" x="0px" y="0px"
	 viewBox="0 0 880 550.6" style="enable-background:new 0 0 900 550.6;" xml:space="preserve">
<style type="text/css">
	.st0{clip-path:url(#SVGID_2_);}
	.st1{opacity:0.3;clip-path:url(#SVGID_4_);fill:#FF0000;}
	
		.st2{opacity:0.6;clip-path:url(#SVGID_6_);fill:none;stroke:#FF0000;stroke-width:1.1;stroke-linejoin:round;stroke-miterlimit:10;stroke-dasharray:6.6,6.6;}
	
		.st3{opacity:0.3;clip-path:url(#SVGID_8_);fill:none;stroke:#FFFFFF;stroke-width:1.1;stroke-linejoin:round;stroke-miterlimit:10;stroke-dasharray:6.6,6.6;}
	.st4{clip-path:url(#SVGID_10_);fill:#FFFFFF;}
	.st5{clip-path:url(#SVGID_10_);fill:none;stroke:#FF0000;stroke-linejoin:round;stroke-miterlimit:10;}
	.st6{clip-path:url(#SVGID_12_);}
	.st7{opacity:0.75;clip-path:url(#SVGID_14_);fill:#C9C9C9;}
	.st8{opacity:0.75;clip-path:url(#SVGID_16_);fill:#A3A3A3;}
	.st9{clip-path:url(#SVGID_2_);fill:none;stroke:#000000;stroke-width:1.2;stroke-linejoin:round;stroke-miterlimit:10;}
	
		.st10{clip-path:url(#SVGID_18_);fill:none;stroke:#999999;stroke-width:1.3;stroke-linecap:square;stroke-linejoin:round;stroke-miterlimit:10;}
	
		.st11{clip-path:url(#SVGID_20_);fill:none;stroke:#666666;stroke-width:1.3;stroke-linecap:square;stroke-linejoin:round;stroke-miterlimit:10;}
	.st12{clip-path:url(#SVGID_2_);fill:none;stroke:#000000;stroke-width:1.2;stroke-linecap:square;stroke-miterlimit:10;}
	
		.st13{opacity:0.6;clip-path:url(#SVGID_2_);fill:none;stroke:#FF0000;stroke-width:0.9;stroke-linecap:round;stroke-linejoin:round;stroke-miterlimit:10;}
	.st14{opacity:0.75;fill:#C9C9C9;}
	.st15{fill:none;stroke:#FFFFFF;stroke-miterlimit:10;}
	.st16{opacity:0.75;fill:#A3A3A3;}
	
		.st17{opacity:0.6;clip-path:url(#SVGID_2_);fill:none;stroke:#FF0000;stroke-width:1.1;stroke-linejoin:round;stroke-miterlimit:10;stroke-dasharray:6.6,6.6;}
	.st18{clip-path:url(#SVGID_22_);}
</style>
<g>
	<defs>
		<rect id="SVGID_1_" width="997" height="550.6"/>
	</defs>
	<clipPath id="SVGID_2_">
		<use xlink:href="#SVGID_1_"  style="overflow:visible;"/>
	</clipPath>
	<g class="st0">
		<defs>
			<rect id="SVGID_3_" x="85.6" y="65.5" width="530.7" height="399.5"/>
		</defs>
		<clipPath id="SVGID_4_">
			<use xlink:href="#SVGID_3_"  style="overflow:visible;"/>
		</clipPath>
		<rect x="160.7" y="113.5" class="st1" width="5.1" height="321.9"/>
	</g>
	<g class="st0">
		<defs>
			<rect id="SVGID_5_" x="85.6" y="65.5" width="530.7" height="399.5"/>
		</defs>
		<clipPath id="SVGID_6_">
			<use xlink:href="#SVGID_5_"  style="overflow:visible;"/>
		</clipPath>
		<line class="st2" x1="163.2" y1="435.4" x2="163.2" y2="113.5"/>
	</g>
	<g class="st0">
		<defs>
			<rect id="SVGID_7_" x="85.6" y="65.5" width="530.7" height="399.5"/>
		</defs>
		<clipPath id="SVGID_8_">
			<use xlink:href="#SVGID_7_"  style="overflow:visible;"/>
		</clipPath>
		<line class="st3" x1="163.2" y1="435.4" x2="163.2" y2="113.5"/>
	</g>
	<g class="st0">
		<defs>
			<rect id="SVGID_9_" x="85.6" y="65.5" width="530.7" height="399.5"/>
		</defs>
		<clipPath id="SVGID_10_">
			<use xlink:href="#SVGID_9_"  style="overflow:visible;"/>
		</clipPath>
		<path class="st4" d="M163.2,101.8c2,0,3.9-0.8,5.2-2.2s2.2-3.3,2.2-5.2s-0.8-3.9-2.2-5.2c-1.4-1.4-3.3-2.2-5.2-2.2
			c-2,0-3.9,0.8-5.2,2.2c-1.4,1.4-2.2,3.3-2.2,5.2s0.8,3.9,2.2,5.2C159.4,101,161.3,101.8,163.2,101.8z"/>
		<path class="st5" d="M163.2,101.8c2,0,3.9-0.8,5.2-2.2s2.2-3.3,2.2-5.2s-0.8-3.9-2.2-5.2c-1.4-1.4-3.3-2.2-5.2-2.2
			c-2,0-3.9,0.8-5.2,2.2c-1.4,1.4-2.2,3.3-2.2,5.2s0.8,3.9,2.2,5.2C159.4,101,161.3,101.8,163.2,101.8z"/>
	</g>
	<g class="st0">
		<defs>
			<rect id="SVGID_11_" x="85.6" y="65.5" width="530.7" height="399.5"/>
		</defs>
		<clipPath id="SVGID_12_">
			<use xlink:href="#SVGID_11_"  style="overflow:visible;"/>
		</clipPath>
		<polyline class="st6" points="161.3,97 162.9,97 162.9,91.5 161.1,91.8 161.1,90.9 162.9,90.6 163.9,90.6 163.9,97 165.5,97 
			165.5,97.9 161.3,97.9 161.3,97 		"/>
	</g>
	<g class="st0">
		<defs>
			<rect id="SVGID_13_" x="85.6" y="65.5" width="530.7" height="399.5"/>
		</defs>
		<clipPath id="SVGID_14_">
			<use xlink:href="#SVGID_13_"  style="overflow:visible;"/>
		</clipPath>
		<polygon class="st7" points="85.6,435.4 85.6,367.5 96.3,367.5 96.3,323.9 106.9,323.9 106.9,139.5 117.5,139.5 117.5,216.3 
			128.1,216.3 128.1,316.7 138.7,316.7 138.7,358.7 149.3,358.7 149.3,363.6 159.9,363.6 159.9,363.5 170.6,363.5 170.6,363.1 
			181.2,363.1 181.2,375.9 191.8,375.9 191.8,378.7 202.4,378.7 202.4,388.7 213,388.7 213,400.9 223.6,400.9 223.6,404.5 
			234.2,404.5 234.2,408.2 244.9,408.2 244.9,410.1 255.5,410.1 255.5,415.1 266.1,415.1 266.1,414.4 276.7,414.4 276.7,413.9 
			287.3,413.9 287.3,416.3 297.9,416.3 297.9,417.7 308.5,417.7 308.5,418.4 319.2,418.4 319.2,419 329.8,419 329.8,419 340.4,419 
			340.4,421.5 351,421.5 351,421.9 361.6,421.9 361.6,421.8 372.2,421.8 372.2,421.2 382.8,421.2 382.8,423.8 393.5,423.8 
			393.5,423.2 404.1,423.2 404.1,422.9 414.7,422.9 414.7,423 425.3,423 425.3,425.2 435.9,425.2 435.9,425.7 446.5,425.7 
			446.5,426.9 457.1,426.9 457.1,426.3 467.8,426.3 467.8,427.4 478.4,427.4 478.4,426.3 489,426.3 489,427.7 499.6,427.7 
			499.6,427.7 510.2,427.7 510.2,428.8 520.8,428.8 520.8,427.4 531.4,427.4 531.4,427.4 542.1,427.4 542.1,430 552.7,430 
			552.7,427.5 563.3,427.5 563.3,428.3 573.9,428.3 573.9,429.9 584.5,429.9 584.5,428.3 595.1,428.3 595.1,429.3 605.7,429.3 
			605.7,429 616.4,429 616.4,435.4 605.7,435.4 595.1,435.4 584.5,435.4 573.9,435.4 563.3,435.4 552.7,435.4 542.1,435.4 
			531.4,435.4 520.8,435.4 510.2,435.4 499.6,435.4 489,435.4 478.4,435.4 467.8,435.4 457.1,435.4 446.5,435.4 435.9,435.4 
			425.3,435.4 414.7,435.4 404.1,435.4 393.5,435.4 382.8,435.4 372.2,435.4 361.6,435.4 351,435.4 340.4,435.4 329.8,435.4 
			319.2,435.4 308.5,435.4 297.9,435.4 287.3,435.4 276.7,435.4 266.1,435.4 255.5,435.4 244.9,435.4 234.2,435.4 223.6,435.4 
			213,435.4 202.4,435.4 191.8,435.4 181.2,435.4 170.6,435.4 159.9,435.4 149.3,435.4 138.7,435.4 128.1,435.4 117.5,435.4 
			106.9,435.4 96.3,435.4 		"/>
	</g>
	<g class="st0">
		<defs>
			<rect id="SVGID_15_" x="85.6" y="65.5" width="530.7" height="399.5"/>
		</defs>
		<clipPath id="SVGID_16_">
			<use xlink:href="#SVGID_15_"  style="overflow:visible;"/>
		</clipPath>
		<polygon class="st8" points="85.6,435.4 85.6,430.6 96.3,430.6 96.3,399.8 106.9,399.8 106.9,215 117.5,215 117.5,276.1 
			128.1,276.1 128.1,355.4 138.7,355.4 138.7,380.1 149.3,380.1 149.3,386.9 159.9,386.9 159.9,369.1 170.6,369.1 170.6,360 
			181.2,360 181.2,374 191.8,374 191.8,383.4 202.4,383.4 202.4,395 213,395 213,405.5 223.6,405.5 223.6,410.6 234.2,410.6 
			234.2,416.9 244.9,416.9 244.9,417.9 255.5,417.9 255.5,421.1 266.1,421.1 266.1,423 276.7,423 276.7,424.1 287.3,424.1 
			287.3,426.3 297.9,426.3 297.9,427.1 308.5,427.1 308.5,427.3 319.2,427.3 319.2,427.6 329.8,427.6 329.8,429.3 340.4,429.3 
			340.4,430.6 351,430.6 351,430.9 361.6,430.9 361.6,430.5 372.2,430.5 372.2,430.9 382.8,430.9 382.8,433.2 393.5,433.2 
			393.5,432 404.1,432 404.1,432.8 414.7,432.8 414.7,432.2 425.3,432.2 425.3,433 435.9,433 435.9,431.3 446.5,431.3 446.5,432.2 
			457.1,432.2 457.1,433.2 467.8,433.2 467.8,433.8 478.4,433.8 478.4,433.5 489,433.5 489,434.1 499.6,434.1 499.6,433.5 
			510.2,433.5 510.2,434.4 520.8,434.4 520.8,434 531.4,434 531.4,433.8 542.1,433.8 542.1,434.4 552.7,434.4 552.7,433.8 
			563.3,433.8 563.3,434 573.9,434 584.5,434 584.5,433.2 595.1,433.2 595.1,434.6 605.7,434.6 605.7,434.8 616.4,434.8 
			616.4,435.4 605.7,435.4 595.1,435.4 584.5,435.4 573.9,435.4 563.3,435.4 552.7,435.4 542.1,435.4 531.4,435.4 520.8,435.4 
			510.2,435.4 499.6,435.4 489,435.4 478.4,435.4 467.8,435.4 457.1,435.4 446.5,435.4 435.9,435.4 425.3,435.4 414.7,435.4 
			404.1,435.4 393.5,435.4 382.8,435.4 372.2,435.4 361.6,435.4 351,435.4 340.4,435.4 329.8,435.4 319.2,435.4 308.5,435.4 
			297.9,435.4 287.3,435.4 276.7,435.4 266.1,435.4 255.5,435.4 244.9,435.4 234.2,435.4 223.6,435.4 213,435.4 202.4,435.4 
			191.8,435.4 181.2,435.4 170.6,435.4 159.9,435.4 149.3,435.4 138.7,435.4 128.1,435.4 117.5,435.4 106.9,435.4 96.3,435.4 		"/>
	</g>
	<line class="st0" x1="85.6" y1="475" x2="85.6" y2="483"/>
	<line class="st9" x1="85.6" y1="475" x2="85.6" y2="483"/>
	<path class="st0" d="M85.6,491.3c1.3,0,2.3,0.5,3,1.6c0.7,1,1,2.5,1,4.5c0,2-0.4,3.5-1,4.5c-0.7,1-1.7,1.5-3,1.5
		c-1.3,0-2.3-0.5-3-1.5c-0.7-1-1-2.5-1-4.5c0-2,0.3-3.5,1-4.5C83.3,491.8,84.3,491.3,85.6,491.3 M85.6,492.5c-0.8,0-1.4,0.4-1.8,1.2
		s-0.6,2-0.6,3.6s0.2,2.8,0.6,3.6c0.4,0.8,1,1.2,1.8,1.2c0.8,0,1.4-0.4,1.8-1.2c0.4-0.8,0.6-2,0.6-3.6s-0.2-2.8-0.6-3.6
		C87.1,492.9,86.5,492.5,85.6,492.5"/>
	<line class="st0" x1="191.8" y1="475" x2="191.8" y2="483"/>
	<line class="st9" x1="191.8" y1="475" x2="191.8" y2="483"/>
	<polyline class="st0" points="188.7,501.8 191.3,501.8 191.3,492.9 188.5,493.5 188.5,492 191.2,491.5 192.8,491.5 192.8,501.8 
		195.4,501.8 195.4,503.1 188.7,503.1 188.7,501.8 	"/>
	<line class="st0" x1="297.9" y1="475" x2="297.9" y2="483"/>
	<line class="st9" x1="297.9" y1="475" x2="297.9" y2="483"/>
	<path class="st0" d="M295.9,501.8h5.5v1.3H294v-1.3c0.6-0.6,1.4-1.4,2.4-2.5c1-1,1.7-1.7,2-2c0.5-0.6,0.9-1,1.1-1.4
		c0.2-0.4,0.3-0.8,0.3-1.2c0-0.6-0.2-1.1-0.7-1.5c-0.4-0.4-1-0.6-1.7-0.6c-0.5,0-1,0.1-1.6,0.3c-0.5,0.2-1.1,0.4-1.8,0.8V492
		c0.6-0.3,1.2-0.4,1.8-0.6c0.5-0.1,1.1-0.2,1.5-0.2c1.2,0,2.2,0.3,2.9,0.9s1.1,1.4,1.1,2.4c0,0.5-0.1,0.9-0.3,1.4
		c-0.2,0.4-0.5,0.9-1,1.5c-0.1,0.2-0.5,0.6-1.2,1.3C298.1,499.5,297.2,500.5,295.9,501.8"/>
	<line class="st0" x1="404.1" y1="475" x2="404.1" y2="483"/>
	<line class="st9" x1="404.1" y1="475" x2="404.1" y2="483"/>
	<path class="st0" d="M405.5,496.8c0.8,0.2,1.3,0.5,1.8,1c0.4,0.5,0.6,1.2,0.6,1.9c0,1.2-0.4,2-1.2,2.7c-0.8,0.6-1.9,0.9-3.4,0.9
		c-0.5,0-1,0-1.5-0.1c-0.5-0.1-1.1-0.2-1.6-0.4v-1.5c0.4,0.3,0.9,0.4,1.4,0.6c0.5,0.1,1.1,0.2,1.6,0.2c1,0,1.7-0.2,2.3-0.6
		s0.8-1,0.8-1.7c0-0.7-0.2-1.2-0.7-1.6s-1.2-0.6-2-0.6h-1.4v-1.3h1.4c0.8,0,1.4-0.1,1.8-0.5c0.4-0.3,0.6-0.8,0.6-1.3
		s-0.2-1.1-0.6-1.4c-0.4-0.3-1-0.5-1.8-0.5c-0.4,0-0.9,0-1.4,0.1c-0.5,0.1-1,0.2-1.6,0.4v-1.4c0.6-0.2,1.2-0.3,1.7-0.4
		c0.5-0.1,1-0.1,1.5-0.1c1.2,0,2.1,0.3,2.8,0.8c0.7,0.5,1.1,1.3,1.1,2.2c0,0.6-0.2,1.2-0.6,1.6C406.7,496.4,406.1,496.7,405.5,496.8
		"/>
	<line class="st0" x1="510.2" y1="475" x2="510.2" y2="483"/>
	<line class="st9" x1="510.2" y1="475" x2="510.2" y2="483"/>
	<path class="st0" d="M510.8,491.5h2v7.6h1.7v1.3h-1.7v2.8h-1.6v-2.8h-5.3v-1.5L510.8,491.5 M511.2,492.8l-4,6.2h4V492.8"/>
	<line class="st0" x1="616.4" y1="475" x2="616.4" y2="483"/>
	<line class="st9" x1="616.4" y1="475" x2="616.4" y2="483"/>
	<path class="st0" d="M613,491.5h6.2v1.3h-4.8v2.9c0.2-0.1,0.5-0.1,0.7-0.2c0.2,0,0.5-0.1,0.7-0.1c1.3,0,2.3,0.4,3.1,1.1
		c0.8,0.7,1.2,1.7,1.2,2.9c0,1.3-0.4,2.2-1.2,2.9c-0.8,0.7-1.9,1-3.3,1c-0.5,0-1,0-1.5-0.1c-0.5-0.1-1-0.2-1.6-0.4v-1.6
		c0.5,0.3,0.9,0.4,1.5,0.6c0.5,0.1,1,0.2,1.6,0.2c0.9,0,1.6-0.2,2.1-0.7c0.5-0.5,0.8-1.1,0.8-1.9c0-0.8-0.3-1.4-0.8-1.9
		c-0.5-0.5-1.2-0.7-2.1-0.7c-0.4,0-0.8,0-1.3,0.1c-0.4,0.1-0.8,0.2-1.3,0.4V491.5"/>
	<polyline class="st0" points="342.9,520.7 344.9,520.7 343.7,526.8 351.3,520.7 353.9,520.7 345.3,527.6 351.6,535.2 349.2,535.2 
		343.4,528.1 342,535.2 340,535.2 342.9,520.7 	"/>
	<path class="st0" d="M360.1,528.7v1.3c-0.5-0.3-1-0.4-1.5-0.6c-0.5-0.1-0.9-0.2-1.3-0.2c-0.8,0-1.3,0.2-1.8,0.4
		c-0.4,0.3-0.6,0.7-0.6,1.2c0,0.4,0.1,0.8,0.4,1c0.3,0.2,0.8,0.4,1.5,0.6l0.8,0.2c1,0.2,1.8,0.5,2.3,1c0.5,0.5,0.7,1.2,0.7,2
		c0,1-0.3,1.7-1,2.2c-0.7,0.5-1.6,0.8-2.9,0.8c-0.5,0-1-0.1-1.6-0.2c-0.5-0.1-1.1-0.3-1.7-0.5v-1.4c0.6,0.3,1.1,0.6,1.6,0.7
		c0.5,0.2,1.1,0.2,1.6,0.2c0.8,0,1.4-0.2,1.8-0.5c0.4-0.3,0.6-0.7,0.6-1.3c0-0.5-0.2-0.9-0.5-1.2c-0.3-0.3-0.8-0.5-1.5-0.6l-0.8-0.2
		c-1-0.2-1.8-0.5-2.2-1c-0.5-0.4-0.7-1-0.7-1.8c0-0.9,0.3-1.6,1-2.1c0.6-0.5,1.5-0.8,2.6-0.8c0.5,0,1,0,1.5,0.1
		C359.1,528.3,359.6,528.5,360.1,528.7"/>
	<line class="st0" x1="75.6" y1="435.4" x2="67.6" y2="435.4"/>
	<line class="st9" x1="75.6" y1="435.4" x2="67.6" y2="435.4"/>
	<path class="st0" d="M44.4,435.4c0-1.3,0.5-2.3,1.6-3c1-0.7,2.5-1,4.5-1c2,0,3.5,0.4,4.5,1c1,0.7,1.5,1.7,1.5,3
		c0,1.3-0.5,2.3-1.5,3c-1,0.7-2.5,1-4.5,1c-2,0-3.5-0.3-4.5-1C45,437.7,44.4,436.7,44.4,435.4 M45.7,435.4c0,0.8,0.4,1.4,1.2,1.8
		c0.8,0.4,2,0.6,3.6,0.6c1.6,0,2.8-0.2,3.6-0.6c0.8-0.4,1.2-1,1.2-1.8c0-0.8-0.4-1.4-1.2-1.8c-0.8-0.4-2-0.6-3.6-0.6
		c-1.6,0-2.8,0.2-3.6,0.6C46.1,434,45.7,434.6,45.7,435.4"/>
	<line class="st0" x1="75.6" y1="355.9" x2="67.6" y2="355.9"/>
	<line class="st9" x1="75.6" y1="355.9" x2="67.6" y2="355.9"/>
	<path class="st0" d="M44.7,369.4v-6.2H46v4.8h2.9c-0.1-0.2-0.1-0.5-0.2-0.7c0-0.2-0.1-0.5-0.1-0.7c0-1.3,0.4-2.3,1.1-3.1
		c0.7-0.8,1.7-1.2,2.9-1.2c1.3,0,2.2,0.4,2.9,1.2c0.7,0.8,1,1.9,1,3.3c0,0.5,0,1-0.1,1.5c-0.1,0.5-0.2,1-0.4,1.6h-1.6
		c0.3-0.5,0.4-0.9,0.6-1.5c0.1-0.5,0.2-1,0.2-1.6c0-0.9-0.2-1.6-0.7-2.1c-0.5-0.5-1.1-0.8-1.9-0.8c-0.8,0-1.4,0.3-1.9,0.8
		c-0.5,0.5-0.7,1.2-0.7,2.1c0,0.4,0,0.8,0.1,1.3c0.1,0.4,0.2,0.8,0.4,1.3H44.7"/>
	<path class="st0" d="M44.4,355.9c0-1.3,0.5-2.3,1.6-3c1-0.7,2.5-1,4.5-1c2,0,3.5,0.4,4.5,1c1,0.7,1.5,1.7,1.5,3
		c0,1.3-0.5,2.3-1.5,3c-1,0.7-2.5,1-4.5,1c-2,0-3.5-0.3-4.5-1C45,358.2,44.4,357.2,44.4,355.9 M45.7,355.9c0,0.8,0.4,1.4,1.2,1.8
		c0.8,0.4,2,0.6,3.6,0.6c1.6,0,2.8-0.2,3.6-0.6s1.2-1,1.2-1.8c0-0.8-0.4-1.4-1.2-1.8c-0.8-0.4-2-0.6-3.6-0.6c-1.6,0-2.8,0.2-3.6,0.6
		C46.1,354.5,45.7,355.1,45.7,355.9"/>
	<path class="st0" d="M44.4,345.7c0-1.3,0.5-2.3,1.6-3c1-0.7,2.5-1,4.5-1c2,0,3.5,0.4,4.5,1c1,0.7,1.5,1.7,1.5,3
		c0,1.3-0.5,2.3-1.5,3c-1,0.7-2.5,1-4.5,1c-2,0-3.5-0.3-4.5-1C45,348.1,44.4,347,44.4,345.7 M45.7,345.7c0,0.8,0.4,1.4,1.2,1.8
		c0.8,0.4,2,0.6,3.6,0.6c1.6,0,2.8-0.2,3.6-0.6s1.2-1,1.2-1.8c0-0.8-0.4-1.4-1.2-1.8c-0.8-0.4-2-0.6-3.6-0.6c-1.6,0-2.8,0.2-3.6,0.6
		C46.1,344.3,45.7,344.9,45.7,345.7"/>
	<line class="st0" x1="75.6" y1="276.4" x2="67.6" y2="276.4"/>
	<line class="st9" x1="75.6" y1="276.4" x2="67.6" y2="276.4"/>
	<polyline class="st0" points="55,294.8 55,292.2 46.1,292.2 46.7,295 45.2,295 44.7,292.2 44.7,290.6 55,290.6 55,288.1 
		56.3,288.1 56.3,294.8 55,294.8 	"/>
	<path class="st0" d="M44.4,281.5c0-1.3,0.5-2.3,1.6-3c1-0.7,2.5-1,4.5-1c2,0,3.5,0.4,4.5,1c1,0.7,1.5,1.7,1.5,3
		c0,1.3-0.5,2.3-1.5,3c-1,0.7-2.5,1-4.5,1c-2,0-3.5-0.3-4.5-1C45,283.8,44.4,282.8,44.4,281.5 M45.7,281.5c0,0.8,0.4,1.4,1.2,1.8
		c0.8,0.4,2,0.6,3.6,0.6c1.6,0,2.8-0.2,3.6-0.6c0.8-0.4,1.2-1,1.2-1.8c0-0.8-0.4-1.4-1.2-1.8c-0.8-0.4-2-0.6-3.6-0.6
		c-1.6,0-2.8,0.2-3.6,0.6C46.1,280.1,45.7,280.7,45.7,281.5"/>
	<path class="st0" d="M44.4,271.3c0-1.3,0.5-2.3,1.6-3c1-0.7,2.5-1,4.5-1c2,0,3.5,0.4,4.5,1c1,0.7,1.5,1.7,1.5,3
		c0,1.3-0.5,2.3-1.5,3c-1,0.7-2.5,1-4.5,1c-2,0-3.5-0.3-4.5-1C45,273.6,44.4,272.6,44.4,271.3 M45.7,271.3c0,0.8,0.4,1.4,1.2,1.8
		c0.8,0.4,2,0.6,3.6,0.6c1.6,0,2.8-0.2,3.6-0.6c0.8-0.4,1.2-1,1.2-1.8c0-0.8-0.4-1.4-1.2-1.8c-0.8-0.4-2-0.6-3.6-0.6
		c-1.6,0-2.8,0.2-3.6,0.6C46.1,269.9,45.7,270.5,45.7,271.3"/>
	<path class="st0" d="M44.4,261.2c0-1.3,0.5-2.3,1.6-3c1-0.7,2.5-1,4.5-1c2,0,3.5,0.4,4.5,1c1,0.7,1.5,1.7,1.5,3
		c0,1.3-0.5,2.3-1.5,3c-1,0.7-2.5,1-4.5,1c-2,0-3.5-0.3-4.5-1C45,263.5,44.4,262.5,44.4,261.2 M45.7,261.2c0,0.8,0.4,1.4,1.2,1.8
		c0.8,0.4,2,0.6,3.6,0.6c1.6,0,2.8-0.2,3.6-0.6c0.8-0.4,1.2-1,1.2-1.8c0-0.8-0.4-1.4-1.2-1.8c-0.8-0.4-2-0.6-3.6-0.6
		c-1.6,0-2.8,0.2-3.6,0.6C46.1,259.7,45.7,260.3,45.7,261.2"/>
	<line class="st0" x1="75.6" y1="196.9" x2="67.6" y2="196.9"/>
	<line class="st9" x1="75.6" y1="196.9" x2="67.6" y2="196.9"/>
	<polyline class="st0" points="55,215.3 55,212.7 46.1,212.7 46.7,215.5 45.2,215.5 44.7,212.7 44.7,211.1 55,211.1 55,208.6 
		56.3,208.6 56.3,215.3 55,215.3 	"/>
	<path class="st0" d="M44.7,205.4v-6.2H46v4.8h2.9c-0.1-0.2-0.1-0.5-0.2-0.7c0-0.2-0.1-0.5-0.1-0.7c0-1.3,0.4-2.3,1.1-3.1
		c0.7-0.8,1.7-1.2,2.9-1.2c1.3,0,2.2,0.4,2.9,1.2c0.7,0.8,1,1.9,1,3.3c0,0.5,0,1-0.1,1.5c-0.1,0.5-0.2,1-0.4,1.6h-1.6
		c0.3-0.5,0.4-0.9,0.6-1.5c0.1-0.5,0.2-1,0.2-1.6c0-0.9-0.2-1.6-0.7-2.1c-0.5-0.5-1.1-0.8-1.9-0.8c-0.8,0-1.4,0.3-1.9,0.8
		c-0.5,0.5-0.7,1.2-0.7,2.1c0,0.4,0,0.8,0.1,1.3c0.1,0.4,0.2,0.8,0.4,1.3H44.7"/>
	<path class="st0" d="M44.4,191.8c0-1.3,0.5-2.3,1.6-3c1-0.7,2.5-1,4.5-1c2,0,3.5,0.4,4.5,1c1,0.7,1.5,1.7,1.5,3
		c0,1.3-0.5,2.3-1.5,3c-1,0.7-2.5,1-4.5,1c-2,0-3.5-0.3-4.5-1C45,194.2,44.4,193.1,44.4,191.8 M45.7,191.8c0,0.8,0.4,1.4,1.2,1.8
		c0.8,0.4,2,0.6,3.6,0.6c1.6,0,2.8-0.2,3.6-0.6c0.8-0.4,1.2-1,1.2-1.8c0-0.8-0.4-1.4-1.2-1.8c-0.8-0.4-2-0.6-3.6-0.6
		c-1.6,0-2.8,0.2-3.6,0.6C46.1,190.4,45.7,191,45.7,191.8"/>
	<path class="st0" d="M44.4,181.7c0-1.3,0.5-2.3,1.6-3c1-0.7,2.5-1,4.5-1c2,0,3.5,0.4,4.5,1c1,0.7,1.5,1.7,1.5,3
		c0,1.3-0.5,2.3-1.5,3c-1,0.7-2.5,1-4.5,1c-2,0-3.5-0.3-4.5-1C45,184,44.4,183,44.4,181.7 M45.7,181.7c0,0.8,0.4,1.4,1.2,1.8
		c0.8,0.4,2,0.6,3.6,0.6c1.6,0,2.8-0.2,3.6-0.6c0.8-0.4,1.2-1,1.2-1.8c0-0.8-0.4-1.4-1.2-1.8c-0.8-0.4-2-0.6-3.6-0.6
		c-1.6,0-2.8,0.2-3.6,0.6C46.1,180.2,45.7,180.8,45.7,181.7"/>
	<line class="st0" x1="75.6" y1="117.4" x2="67.6" y2="117.4"/>
	<line class="st9" x1="75.6" y1="117.4" x2="67.6" y2="117.4"/>
	<path class="st0" d="M55,134.7v-5.5h1.3v7.4H55c-0.6-0.6-1.4-1.4-2.5-2.4c-1-1-1.7-1.7-2-2c-0.6-0.5-1-0.9-1.4-1.1
		c-0.4-0.2-0.8-0.3-1.2-0.3c-0.6,0-1.1,0.2-1.5,0.7c-0.4,0.4-0.6,1-0.6,1.7c0,0.5,0.1,1,0.3,1.6c0.2,0.5,0.4,1.1,0.8,1.8h-1.6
		c-0.3-0.6-0.4-1.2-0.6-1.8c-0.1-0.5-0.2-1.1-0.2-1.5c0-1.2,0.3-2.2,0.9-2.9c0.6-0.7,1.4-1.1,2.4-1.1c0.5,0,0.9,0.1,1.4,0.3
		c0.4,0.2,0.9,0.5,1.5,1c0.2,0.1,0.6,0.5,1.3,1.2C52.7,132.5,53.7,133.4,55,134.7"/>
	<path class="st0" d="M44.4,122.5c0-1.3,0.5-2.3,1.6-3c1-0.7,2.5-1,4.5-1c2,0,3.5,0.4,4.5,1c1,0.7,1.5,1.7,1.5,3
		c0,1.3-0.5,2.3-1.5,3c-1,0.7-2.5,1-4.5,1c-2,0-3.5-0.3-4.5-1C45,124.8,44.4,123.8,44.4,122.5 M45.7,122.5c0,0.8,0.4,1.4,1.2,1.8
		c0.8,0.4,2,0.6,3.6,0.6c1.6,0,2.8-0.2,3.6-0.6c0.8-0.4,1.2-1,1.2-1.8c0-0.8-0.4-1.4-1.2-1.8c-0.8-0.4-2-0.6-3.6-0.6
		c-1.6,0-2.8,0.2-3.6,0.6C46.1,121.1,45.7,121.7,45.7,122.5"/>
	<path class="st0" d="M44.4,112.3c0-1.3,0.5-2.3,1.6-3c1-0.7,2.5-1,4.5-1c2,0,3.5,0.4,4.5,1c1,0.7,1.5,1.7,1.5,3
		c0,1.3-0.5,2.3-1.5,3c-1,0.7-2.5,1-4.5,1c-2,0-3.5-0.3-4.5-1C45,114.7,44.4,113.6,44.4,112.3 M45.7,112.3c0,0.8,0.4,1.4,1.2,1.8
		c0.8,0.4,2,0.6,3.6,0.6c1.6,0,2.8-0.2,3.6-0.6c0.8-0.4,1.2-1,1.2-1.8c0-0.8-0.4-1.4-1.2-1.8c-0.8-0.4-2-0.6-3.6-0.6
		c-1.6,0-2.8,0.2-3.6,0.6C46.1,110.9,45.7,111.5,45.7,112.3"/>
	<path class="st0" d="M44.4,102.2c0-1.3,0.5-2.3,1.6-3c1-0.7,2.5-1,4.5-1c2,0,3.5,0.4,4.5,1c1,0.7,1.5,1.7,1.5,3
		c0,1.3-0.5,2.3-1.5,3c-1,0.7-2.5,1-4.5,1c-2,0-3.5-0.3-4.5-1C45,104.5,44.4,103.5,44.4,102.2 M45.7,102.2c0,0.8,0.4,1.4,1.2,1.8
		c0.8,0.4,2,0.6,3.6,0.6c1.6,0,2.8-0.2,3.6-0.6c0.8-0.4,1.2-1,1.2-1.8c0-0.8-0.4-1.4-1.2-1.8c-0.8-0.4-2-0.6-3.6-0.6
		c-1.6,0-2.8,0.2-3.6,0.6C46.1,100.7,45.7,101.3,45.7,102.2"/>
	<polyline class="st0" points="11.4,415.9 11.4,413.2 23.6,406.7 11.4,406.7 11.4,404.8 26,404.8 26,407.5 13.8,413.9 26,413.9 
		26,415.9 11.4,415.9 	"/>
	<path class="st0" d="M14.8,396.6L14.8,396.6 M21.7,401.2h-6.6v-1.8h6.6c1,0,1.8-0.2,2.3-0.6c0.5-0.4,0.8-1,0.8-1.8
		c0-1-0.3-1.7-0.9-2.3c-0.6-0.6-1.5-0.8-2.5-0.8h-6.2V392H26v1.8h-1.7c0.7,0.4,1.2,1,1.5,1.5c0.3,0.6,0.5,1.2,0.5,2
		c0,1.3-0.4,2.2-1.2,2.9C24.3,400.8,23.2,401.2,21.7,401.2"/>
	<path class="st0" d="M17.2,379.8c-0.8-0.4-1.4-1-1.8-1.6c-0.4-0.6-0.6-1.4-0.6-2.2c0-1.1,0.4-2,1.2-2.6c0.8-0.6,1.9-0.9,3.4-0.9H26
		v1.8h-6.5c-1,0-1.8,0.2-2.3,0.6c-0.5,0.4-0.8,0.9-0.8,1.7c0,0.9,0.3,1.7,0.9,2.2c0.6,0.5,1.5,0.8,2.5,0.8H26v1.8h-6.5
		c-1,0-1.8,0.2-2.3,0.6c-0.5,0.4-0.8,1-0.8,1.7c0,0.9,0.3,1.7,0.9,2.2c0.6,0.5,1.5,0.8,2.5,0.8H26v1.8H15.1v-1.8h1.7
		c-0.7-0.4-1.2-0.9-1.5-1.5c-0.3-0.6-0.5-1.2-0.5-2s0.2-1.5,0.6-2C15.8,380.5,16.4,380.1,17.2,379.8"/>
	<path class="st0" d="M16.7,367.1c-0.6-0.4-1.1-0.8-1.4-1.4c-0.3-0.6-0.5-1.3-0.5-2.1c0-1.3,0.5-2.4,1.6-3.2
		c1.1-0.8,2.4-1.2,4.2-1.2c1.7,0,3.1,0.4,4.2,1.2c1,0.8,1.6,1.9,1.6,3.2c0,0.8-0.2,1.5-0.5,2.1c-0.3,0.6-0.8,1.1-1.4,1.4H26v1.8
		H10.8v-1.8H16.7 M20.5,361c-1.3,0-2.3,0.3-3.1,0.8c-0.8,0.6-1.1,1.3-1.1,2.2c0,1,0.4,1.7,1.1,2.2c0.8,0.6,1.8,0.8,3.1,0.8
		c1.3,0,2.4-0.3,3.1-0.8c0.8-0.5,1.1-1.3,1.1-2.2c0-0.9-0.4-1.7-1.1-2.2C22.9,361.2,21.9,361,20.5,361"/>
	<path class="st0" d="M19.6,348.6c-1,0-1.8,0.3-2.4,0.8c-0.6,0.5-0.9,1.3-0.9,2.1c0,1,0.3,1.8,0.9,2.4c0.6,0.6,1.4,1,2.4,1V348.6
		 M20.1,346.8H21v8.3c1.2-0.1,2.2-0.4,2.8-1.1c0.6-0.7,1-1.6,1-2.8c0-0.7-0.1-1.4-0.2-2c-0.2-0.6-0.4-1.3-0.8-1.9h1.7
		c0.3,0.6,0.5,1.3,0.6,2c0.1,0.7,0.2,1.4,0.2,2.1c0,1.8-0.5,3.1-1.5,4.2c-1,1-2.4,1.5-4.1,1.5c-1.8,0-3.2-0.5-4.3-1.4
		c-1-1-1.6-2.3-1.6-3.9c0-1.5,0.5-2.6,1.4-3.5C17.2,347.2,18.5,346.8,20.1,346.8"/>
	<path class="st0" d="M16.7,337.5c-0.1,0.2-0.2,0.4-0.3,0.7c0,0.2-0.1,0.5-0.1,0.8c0,1,0.3,1.8,1,2.3c0.7,0.6,1.6,0.8,2.8,0.8H26
		v1.8H15.1v-1.8h1.7c-0.7-0.4-1.2-0.9-1.5-1.5c-0.3-0.6-0.5-1.3-0.5-2.2c0-0.1,0-0.3,0-0.4c0-0.1,0-0.3,0.1-0.5H16.7"/>
	<path class="st0" d="M14.8,325c0-1.6,0.5-2.8,1.5-3.7c1-0.9,2.4-1.3,4.2-1.3c1.8,0,3.2,0.5,4.2,1.3c1,0.9,1.5,2.1,1.5,3.7
		c0,1.6-0.5,2.8-1.5,3.7c-1,0.9-2.4,1.3-4.2,1.3c-1.8,0-3.2-0.4-4.2-1.3C15.3,327.8,14.8,326.6,14.8,325 M16.3,325
		c0,1,0.4,1.7,1.1,2.3c0.8,0.6,1.8,0.8,3.1,0.8c1.3,0,2.3-0.3,3.1-0.8c0.8-0.6,1.1-1.3,1.1-2.3c0-1-0.4-1.7-1.1-2.3
		c-0.8-0.6-1.8-0.8-3.1-0.8c-1.3,0-2.3,0.3-3.1,0.8C16.7,323.3,16.3,324,16.3,325"/>
	<path class="st0" d="M10.8,311.5h1.5v1.7c0,0.6,0.1,1.1,0.4,1.3c0.3,0.3,0.7,0.4,1.4,0.4h1v-3h1.4v3H26v1.8h-9.5v1.7h-1.4v-1.7
		h-0.8c-1.2,0-2.1-0.3-2.7-0.8c-0.6-0.6-0.8-1.5-0.8-2.7V311.5"/>
	<path class="st0" d="M16.7,297.3c-0.1,0.2-0.2,0.4-0.3,0.7c0,0.2-0.1,0.5-0.1,0.8c0,1,0.3,1.8,1,2.3c0.7,0.6,1.6,0.8,2.8,0.8H26
		v1.8H15.1v-1.8h1.7c-0.7-0.4-1.2-0.9-1.5-1.5c-0.3-0.6-0.5-1.3-0.5-2.2c0-0.1,0-0.3,0-0.4c0-0.1,0-0.3,0.1-0.5H16.7"/>
	<path class="st0" d="M19.6,287.8c-1,0-1.8,0.3-2.4,0.8c-0.6,0.5-0.9,1.3-0.9,2.1c0,1,0.3,1.8,0.9,2.4c0.6,0.6,1.4,1,2.4,1V287.8
		 M20.1,286H21v8.3c1.2-0.1,2.2-0.4,2.8-1.1c0.6-0.7,1-1.6,1-2.8c0-0.7-0.1-1.4-0.2-2c-0.2-0.6-0.4-1.3-0.8-1.9h1.7
		c0.3,0.6,0.5,1.3,0.6,2c0.1,0.7,0.2,1.4,0.2,2.1c0,1.8-0.5,3.1-1.5,4.2c-1,1-2.4,1.5-4.1,1.5c-1.8,0-3.2-0.5-4.3-1.4
		c-1-1-1.6-2.3-1.6-3.9c0-1.5,0.5-2.6,1.4-3.5C17.2,286.5,18.5,286,20.1,286"/>
	<path class="st0" d="M12,281.3h3.1v-3.7h1.4v3.7h5.9c0.9,0,1.5-0.1,1.7-0.4c0.3-0.2,0.4-0.7,0.4-1.5v-1.8H26v1.8
		c0,1.4-0.3,2.4-0.8,2.9c-0.5,0.5-1.5,0.8-2.8,0.8h-5.9v1.3h-1.4v-1.3H12V281.3"/>
	<path class="st0" d="M19.8,266.7H26v1.8h-1.7c0.7,0.4,1.2,0.9,1.5,1.5c0.3,0.6,0.5,1.4,0.5,2.2c0,1.1-0.3,2-0.9,2.7
		c-0.6,0.7-1.5,1-2.5,1c-1.2,0-2.1-0.4-2.8-1.2c-0.6-0.8-0.9-2-0.9-3.7v-2.5h-0.2c-0.8,0-1.5,0.3-1.9,0.8c-0.4,0.5-0.7,1.3-0.7,2.3
		c0,0.6,0.1,1.2,0.2,1.8c0.2,0.6,0.4,1.2,0.7,1.7h-1.7c-0.2-0.6-0.4-1.3-0.6-1.9s-0.2-1.2-0.2-1.8c0-1.6,0.4-2.8,1.2-3.5
		C16.9,267.1,18.1,266.7,19.8,266.7 M20.5,270.3c0,1.5,0.2,2.5,0.5,3c0.3,0.6,0.9,0.8,1.7,0.8c0.6,0,1.2-0.2,1.5-0.6
		c0.4-0.4,0.6-1,0.6-1.7c0-1-0.3-1.8-1.1-2.4c-0.7-0.6-1.6-0.9-2.8-0.9h-0.4V270.3"/>
	<path class="st0" d="M10.8,263v-1.8h2.3v1.8H10.8 M15.1,263v-1.8H26v1.8H15.1"/>
	<path class="st0" d="M19.4,248.3H26v1.8h-6.5c-1,0-1.8,0.2-2.3,0.6s-0.8,1-0.8,1.8c0,1,0.3,1.7,0.9,2.3s1.5,0.8,2.5,0.8H26v1.8
		H15.1v-1.8h1.7c-0.6-0.4-1.1-0.9-1.5-1.5c-0.3-0.6-0.5-1.3-0.5-2c0-1.2,0.4-2.2,1.2-2.8C16.8,248.7,17.9,248.3,19.4,248.3"/>
	<path class="st0" d="M19.6,237.2c-1,0-1.8,0.3-2.4,0.8c-0.6,0.5-0.9,1.3-0.9,2.1c0,1,0.3,1.8,0.9,2.4c0.6,0.6,1.4,1,2.4,1V237.2
		 M20.1,235.4H21v8.3c1.2-0.1,2.2-0.4,2.8-1.1c0.6-0.7,1-1.6,1-2.8c0-0.7-0.1-1.4-0.2-2c-0.2-0.6-0.4-1.3-0.8-1.9h1.7
		c0.3,0.6,0.5,1.3,0.6,2c0.1,0.7,0.2,1.4,0.2,2.1c0,1.8-0.5,3.1-1.5,4.2c-1,1-2.4,1.5-4.1,1.5c-1.8,0-3.2-0.5-4.3-1.4
		c-1-1-1.6-2.3-1.6-3.9c0-1.5,0.5-2.6,1.4-3.5C17.2,235.8,18.5,235.4,20.1,235.4"/>
	<path class="st0" d="M20.5,231.4c1.3,0,2.4-0.3,3.1-0.8c0.8-0.5,1.1-1.3,1.1-2.3c0-0.9-0.4-1.7-1.1-2.2c-0.8-0.5-1.8-0.8-3.1-0.8
		c-1.3,0-2.3,0.3-3.1,0.8c-0.8,0.6-1.1,1.3-1.1,2.2c0,1,0.4,1.7,1.1,2.3C18.2,231.1,19.2,231.4,20.5,231.4 M16.7,225.2h-5.9v-1.8H26
		v1.8h-1.6c0.7,0.4,1.1,0.9,1.4,1.4c0.3,0.6,0.5,1.3,0.5,2.1c0,1.3-0.5,2.4-1.6,3.2c-1,0.8-2.4,1.2-4.2,1.2c-1.7,0-3.1-0.4-4.2-1.2
		c-1-0.8-1.6-1.9-1.6-3.2c0-0.8,0.2-1.5,0.5-2.1C15.6,226.1,16.1,225.6,16.7,225.2"/>
	<path class="st0" d="M20.5,212.3c1.3,0,2.4-0.3,3.1-0.8c0.8-0.5,1.1-1.3,1.1-2.3c0-0.9-0.4-1.7-1.1-2.2c-0.8-0.5-1.8-0.8-3.1-0.8
		c-1.3,0-2.3,0.3-3.1,0.8c-0.8,0.6-1.1,1.3-1.1,2.2c0,1,0.4,1.7,1.1,2.3C18.2,212,19.2,212.3,20.5,212.3 M16.7,206.2h-5.9v-1.8H26
		v1.8h-1.6c0.7,0.4,1.1,0.9,1.4,1.4c0.3,0.6,0.5,1.3,0.5,2.1c0,1.3-0.5,2.4-1.6,3.2c-1,0.8-2.4,1.2-4.2,1.2c-1.7,0-3.1-0.4-4.2-1.2
		c-1-0.8-1.6-1.9-1.6-3.2c0-0.8,0.2-1.5,0.5-2.1C15.6,207,16.1,206.6,16.7,206.2"/>
	<path class="st0" d="M14.8,196.3L14.8,196.3 M21.7,200.9h-6.6v-1.8h6.6c1,0,1.8-0.2,2.3-0.6c0.5-0.4,0.8-1,0.8-1.8
		c0-1-0.3-1.7-0.9-2.3c-0.6-0.6-1.5-0.8-2.5-0.8h-6.2v-1.8H26v1.8h-1.7c0.7,0.4,1.2,1,1.5,1.5c0.3,0.6,0.5,1.2,0.5,2
		c0,1.3-0.4,2.2-1.2,2.9C24.3,200.5,23.2,200.9,21.7,200.9"/>
	<path class="st0" d="M20.5,180.1c-1.3,0-2.3,0.3-3.1,0.8c-0.8,0.6-1.1,1.3-1.1,2.2c0,1,0.4,1.7,1.1,2.2c0.8,0.6,1.8,0.8,3.1,0.8
		c1.3,0,2.4-0.3,3.1-0.8c0.8-0.5,1.1-1.3,1.1-2.2c0-0.9-0.4-1.7-1.1-2.2C22.9,180.4,21.9,180.1,20.5,180.1 M24.4,186.3h5.8v1.8H15.1
		v-1.8h1.7c-0.6-0.4-1.1-0.8-1.4-1.4c-0.3-0.6-0.5-1.3-0.5-2.1c0-1.3,0.5-2.4,1.6-3.2c1.1-0.8,2.4-1.2,4.2-1.2
		c1.7,0,3.1,0.4,4.2,1.2c1,0.8,1.6,1.9,1.6,3.2c0,0.8-0.2,1.5-0.5,2.1C25.5,185.4,25,185.9,24.4,186.3"/>
	<polyline class="st0" points="10.8,175.3 10.8,173.5 26,173.5 26,175.3 10.8,175.3 	"/>
	<path class="st0" d="M10.8,169.7v-1.8h2.3v1.8H10.8 M15.1,169.7v-1.8H26v1.8H15.1"/>
	<path class="st0" d="M15.5,156.3h1.7c-0.3,0.5-0.5,1-0.6,1.5c-0.1,0.5-0.2,1-0.2,1.5c0,1.2,0.4,2.1,1.1,2.7c0.7,0.6,1.8,1,3.1,1
		c1.3,0,2.4-0.3,3.1-1c0.7-0.6,1.1-1.6,1.1-2.7c0-0.5-0.1-1-0.2-1.5c-0.1-0.5-0.4-1-0.6-1.5h1.7c0.2,0.5,0.4,1,0.5,1.6
		c0.1,0.5,0.2,1.1,0.2,1.7c0,1.6-0.5,3-1.5,3.9c-1,1-2.4,1.5-4.2,1.5c-1.8,0-3.2-0.5-4.2-1.5s-1.5-2.3-1.5-4c0-0.6,0.1-1.1,0.2-1.6
		S15.3,156.8,15.5,156.3"/>
	<path class="st0" d="M19.8,144.6H26v1.8h-1.7c0.7,0.4,1.2,0.9,1.5,1.5c0.3,0.6,0.5,1.4,0.5,2.2c0,1.1-0.3,2-0.9,2.7
		c-0.6,0.7-1.5,1-2.5,1c-1.2,0-2.1-0.4-2.8-1.2c-0.6-0.8-0.9-2-0.9-3.7v-2.5h-0.2c-0.8,0-1.5,0.3-1.9,0.8c-0.4,0.5-0.7,1.3-0.7,2.3
		c0,0.6,0.1,1.2,0.2,1.8c0.2,0.6,0.4,1.2,0.7,1.7h-1.7c-0.2-0.6-0.4-1.3-0.6-1.9s-0.2-1.2-0.2-1.8c0-1.6,0.4-2.8,1.2-3.5
		C16.9,145,18.1,144.6,19.8,144.6 M20.5,148.2c0,1.5,0.2,2.5,0.5,3c0.3,0.6,0.9,0.8,1.7,0.8c0.6,0,1.2-0.2,1.5-0.6
		c0.4-0.4,0.6-1,0.6-1.7c0-1-0.3-1.8-1.1-2.4c-0.7-0.6-1.6-0.9-2.8-0.9h-0.4V148.2"/>
	<path class="st0" d="M12,139.1h3.1v-3.7h1.4v3.7h5.9c0.9,0,1.5-0.1,1.7-0.4c0.3-0.2,0.4-0.7,0.4-1.5v-1.8H26v1.8
		c0,1.4-0.3,2.4-0.8,2.9c-0.5,0.5-1.5,0.8-2.8,0.8h-5.9v1.3h-1.4v-1.3H12V139.1"/>
	<path class="st0" d="M19.6,125.5c-1,0-1.8,0.3-2.4,0.8c-0.6,0.5-0.9,1.3-0.9,2.1c0,1,0.3,1.8,0.9,2.4c0.6,0.6,1.4,1,2.4,1V125.5
		 M20.1,123.7H21v8.3c1.2-0.1,2.2-0.4,2.8-1.1c0.6-0.7,1-1.6,1-2.8c0-0.7-0.1-1.4-0.2-2c-0.2-0.6-0.4-1.3-0.8-1.9h1.7
		c0.3,0.6,0.5,1.3,0.6,2c0.1,0.7,0.2,1.4,0.2,2.1c0,1.8-0.5,3.1-1.5,4.2c-1,1-2.4,1.5-4.1,1.5c-1.8,0-3.2-0.5-4.3-1.4
		c-1-1-1.6-2.3-1.6-3.9c0-1.5,0.5-2.6,1.4-3.5C17.2,124.2,18.5,123.7,20.1,123.7"/>
	<path class="st0" d="M15.4,113.8h1.7c-0.2,0.5-0.4,1-0.6,1.6c-0.1,0.6-0.2,1.1-0.2,1.7c0,0.9,0.1,1.6,0.4,2s0.7,0.7,1.2,0.7
		c0.4,0,0.7-0.2,1-0.5s0.5-1,0.7-1.9l0.1-0.6c0.3-1.3,0.7-2.2,1.2-2.7c0.5-0.5,1.2-0.8,2.1-0.8c1,0,1.8,0.4,2.4,1.2
		c0.6,0.8,0.9,1.9,0.9,3.3c0,0.6-0.1,1.2-0.2,1.8c-0.1,0.6-0.3,1.3-0.5,2h-1.9c0.4-0.7,0.6-1.3,0.8-2c0.2-0.6,0.3-1.3,0.3-1.9
		c0-0.8-0.1-1.5-0.4-2c-0.3-0.4-0.7-0.7-1.2-0.7c-0.5,0-0.9,0.2-1.1,0.5s-0.5,1-0.8,2.2l-0.1,0.6c-0.2,1.1-0.6,1.9-1.1,2.4
		c-0.5,0.5-1.1,0.7-2,0.7c-1,0-1.8-0.4-2.4-1.1c-0.6-0.7-0.8-1.8-0.8-3.1c0-0.7,0.1-1.3,0.2-1.9C15.1,114.8,15.2,114.3,15.4,113.8"
		/>
	<g class="st0">
		<defs>
			<rect id="SVGID_17_" x="85.6" y="65.5" width="530.7" height="399.5"/>
		</defs>
		<clipPath id="SVGID_18_">
			<use xlink:href="#SVGID_17_"  style="overflow:visible;"/>
		</clipPath>
		<polyline class="st10" points="32.6,374.2 35.1,352.5 37.6,328.8 41.3,291.1 48.8,213.5 50,202.6 51.3,193.2 52.5,185.7 
			53.8,180.6 55,178.2 56.3,178.7 57.5,182.1 58.7,188.3 60,197.1 61.2,208 63.7,234.1 67.5,276.3 70,301.4 71.2,312.2 72.5,321.9 
			73.7,330.4 74.9,337.8 76.2,344.2 77.4,349.7 78.7,354.2 79.9,358 81.2,361 82.4,363.3 83.7,364.9 84.9,365.7 86.2,365.7 
			87.4,365 88.7,363.6 89.9,361.5 91.1,358.6 92.4,354.9 93.6,350.5 94.9,345.2 96.1,339 97.4,331.8 98.6,323.4 99.9,313.9 
			101.1,303.3 103.6,278.5 109.8,210 111.1,198.7 112.3,189.6 113.6,182.9 114.8,179 116.1,178 117.3,179.9 118.6,184.5 
			119.8,191.4 121.1,200.3 122.3,210.7 124.8,234.1 128.5,269.5 131,290.5 133.5,308.3 134.8,316 136,323 137.3,329.2 138.5,334.7 
			139.8,339.6 141,343.9 142.2,347.7 143.5,350.9 144.7,353.6 146,355.9 147.2,357.7 148.5,359.3 149.7,360.5 151,361.5 
			152.2,362.2 153.5,362.8 154.7,363.2 157.2,363.6 159.7,363.7 163.4,363.4 167.2,363.1 169.7,363.1 172.2,363.6 174.6,364.5 
			177.1,365.8 179.6,367.5 183.4,370.6 187.1,373.8 189.6,375.7 193.3,378.2 197.1,380.6 199.6,382.4 202.1,384.5 205.8,387.9 
			212,393.8 215.8,396.9 218.3,398.8 220.8,400.5 224.5,402.6 228.2,404.5 232,406.1 235.7,407.3 240.7,408.7 246.9,410.3 
			258.2,412.8 261.9,413.4 265.6,413.7 270.6,413.9 276.8,414.1 280.6,414.5 298,416.8 310.5,418.1 316.7,418.5 329.2,419.2 
			334.2,419.8 345.4,421.2 350.4,421.4 356.6,421.5 366.6,421.5 372.8,421.7 377.8,422.2 387.8,423.3 391.5,423.5 395.2,423.4 
			406.5,422.8 411.4,422.9 418.9,423.3 423.9,423.8 432.6,424.8 445.1,426.3 448.8,426.5 455.1,426.5 461.3,426.7 468.8,426.8 
			480,426.8 486.2,427.3 491.2,427.6 497.4,427.6 503.7,427.7 516.1,428.2 521.1,428 527.3,427.7 531.1,427.7 534.8,427.9 
			541.1,428.5 544.8,428.8 548.5,428.8 552.3,428.6 559.8,428 563.5,428 567.2,428.2 579.7,429.3 583.4,429.3 594.6,428.9 
			614.6,429 644.5,429.1 653.2,429.4 659.5,429.5 661.9,429.8 664.4,430.2 666.9,430.9 669.4,431.8 		"/>
	</g>
	<g class="st0">
		<defs>
			<rect id="SVGID_19_" x="85.6" y="65.5" width="530.7" height="399.5"/>
		</defs>
		<clipPath id="SVGID_20_">
			<use xlink:href="#SVGID_19_"  style="overflow:visible;"/>
		</clipPath>
		<polyline class="st11" points="32.6,396.8 35.1,380.8 38.8,354.4 41.3,335.5 43.8,315 46.3,292.6 50,258.6 51.3,248.9 52.5,241.1 
			53.8,235.8 55,233.5 56.3,234.6 57.5,239.3 58.7,247.5 60,258.8 61.2,272.7 63.7,305.2 66.2,338.9 67.5,354.5 68.7,368.7 
			70,381.1 71.2,391.8 72.5,400.7 73.7,408 74.9,413.9 76.2,418.6 77.4,422.2 78.7,425.1 79.9,427.3 81.2,429 82.4,430.1 
			83.7,430.9 84.9,431.3 86.2,431.4 87.4,431 88.7,430.3 89.9,429.2 91.1,427.6 92.4,425.5 93.6,422.8 94.9,419.3 96.1,414.8 
			97.4,409.1 98.6,402.1 99.9,393.4 101.1,383 102.4,370.9 103.6,357 106.1,325.1 109.8,275.2 111.1,261 112.3,249.2 113.6,240.5 
			114.8,235.2 116.1,233.5 117.3,235.2 118.6,240 119.8,247.4 121.1,256.8 123.6,278.7 126,301.1 128.5,321.1 129.8,329.8 
			131,337.6 132.3,344.6 133.5,350.7 134.8,356.1 136,360.8 137.3,364.9 138.5,368.5 139.8,371.6 141,374.2 142.2,376.5 
			143.5,378.5 144.7,380.2 146,381.6 147.2,382.8 148.5,383.8 149.7,384.5 151,384.9 152.2,385.1 153.5,384.9 154.7,384.4 
			156,383.5 157.2,382.4 158.4,381 160.9,377.4 167.2,367.7 168.4,366 169.7,364.6 170.9,363.5 172.2,362.6 173.4,362 174.6,361.7 
			175.9,361.7 177.1,362 178.4,362.6 179.6,363.5 180.9,364.6 182.1,366.1 184.6,369.5 189.6,376.6 192.1,379.6 194.6,382.1 
			200.8,387.9 205.8,393.1 209.5,397 213.3,400.4 217,403.5 220.8,406.2 224.5,408.7 228.2,410.8 239.5,416.5 241.9,417.6 
			244.4,418.4 246.9,418.8 249.4,418.9 254.4,419 256.9,419.3 260.6,420 269.4,422 273.1,422.6 278.1,423.3 281.8,424.1 
			290.6,426.2 294.3,427 296.8,427.3 299.3,427.3 301.8,427.1 305.5,426.6 308,426.6 310.5,426.9 318,427.9 321.7,428 326.7,428 
			330.4,428.4 350.4,430.9 354.1,431 360.3,430.8 369.1,430.6 372.8,430.7 376.5,431.1 385.3,432.4 387.8,432.6 391.5,432.6 
			397.7,432.4 404,432.5 409,432.5 417.7,432.3 422.7,432.6 426.4,432.7 430.1,432.5 438.9,431.8 442.6,431.9 456.3,432.6 
			471.3,433.5 483.7,433.7 491.2,434.1 496.2,434.1 508.7,433.7 522.4,434.1 539.8,434 551,434.3 558.5,434 571,433.8 577.2,433.8 
			583.4,433.8 590.9,433.7 594.6,433.9 604.6,434.6 610.9,434.6 630.8,434.4 643.3,433.7 661.9,433.9 666.9,434.4 669.4,434.7 		"/>
	</g>
	<line class="st12" x1="75.6" y1="435.4" x2="75.6" y2="65.5"/>
	<line class="st12" x1="85.6" y1="475" x2="616.4" y2="475"/>
	<path class="st13" d="M248.5,465c-28.4,0.9-56.6,0.9-84.4,0"/>
	<polyline class="st13" points="167,466.9 164.1,465 167.1,463.3 	"/>
	<g class="st0">
		<rect x="634.3" y="79" class="st14" width="21" height="9.8"/>
		<rect x="634.3" y="79" class="st15" width="21" height="9.8"/>
	</g>
	<polyline class="st0" points="666.9,78.6 668.3,78.6 670.5,87.2 672.6,78.6 674.2,78.6 676.3,87.2 678.4,78.6 679.8,78.6 
		677.3,88.8 675.5,88.8 673.4,79.9 671.2,88.8 669.5,88.8 666.9,78.6 	"/>
	<path class="st0" d="M688,84.1v4.6h-1.3v-4.6c0-0.7-0.2-1.3-0.4-1.6c-0.3-0.4-0.7-0.5-1.3-0.5c-0.7,0-1.2,0.2-1.6,0.7
		c-0.4,0.4-0.6,1-0.6,1.8v4.3h-1.3V78.1h1.3v4.2c0.3-0.4,0.6-0.8,1.1-1c0.4-0.2,0.9-0.4,1.4-0.4c0.9,0,1.5,0.3,2,0.8
		C687.8,82.3,688,83.1,688,84.1"/>
	<path class="st0" d="M693.5,80.9c1.1,0,1.9,0.4,2.6,1.1c0.6,0.7,0.9,1.7,0.9,3c0,1.3-0.3,2.2-0.9,2.9c-0.6,0.7-1.5,1.1-2.6,1.1
		c-1.1,0-2-0.4-2.6-1.1c-0.6-0.7-0.9-1.7-0.9-2.9c0-1.3,0.3-2.2,0.9-3C691.5,81.3,692.4,80.9,693.5,80.9 M693.5,82
		c-0.7,0-1.2,0.3-1.6,0.8c-0.4,0.5-0.6,1.2-0.6,2.2c0,0.9,0.2,1.6,0.6,2.2c0.4,0.5,0.9,0.8,1.6,0.8c0.7,0,1.2-0.3,1.6-0.8
		c0.4-0.5,0.6-1.2,0.6-2.2c0-0.9-0.2-1.6-0.6-2.2C694.7,82.3,694.1,82,693.5,82"/>
	<polyline class="st0" points="699.1,78.1 700.3,78.1 700.3,88.8 699.1,88.8 699.1,78.1 	"/>
	<path class="st0" d="M708.3,84.3c0-0.7-0.2-1.2-0.6-1.7c-0.4-0.4-0.9-0.6-1.5-0.6c-0.7,0-1.3,0.2-1.7,0.6c-0.4,0.4-0.7,1-0.7,1.7
		H708.3 M709.5,84.6v0.6h-5.8c0.1,0.9,0.3,1.5,0.8,2c0.5,0.4,1.1,0.7,1.9,0.7c0.5,0,1-0.1,1.4-0.2s0.9-0.3,1.4-0.5v1.2
		c-0.4,0.2-0.9,0.4-1.4,0.4c-0.5,0.1-1,0.1-1.4,0.1c-1.2,0-2.2-0.4-2.9-1.1c-0.7-0.7-1.1-1.7-1.1-2.9c0-1.2,0.3-2.2,1-3
		c0.7-0.7,1.6-1.1,2.7-1.1c1,0,1.8,0.3,2.5,1C709.2,82.6,709.5,83.5,709.5,84.6"/>
	<polyline class="st0" points="710.9,84.4 714.6,84.4 714.6,85.5 710.9,85.5 710.9,84.4 	"/>
	<path class="st0" d="M722.1,84.9c0-0.9-0.2-1.6-0.6-2.2c-0.4-0.5-0.9-0.8-1.6-0.8c-0.7,0-1.2,0.3-1.6,0.8c-0.4,0.5-0.6,1.2-0.6,2.2
		c0,0.9,0.2,1.7,0.6,2.2c0.4,0.5,0.9,0.8,1.6,0.8c0.7,0,1.2-0.3,1.6-0.8C721.9,86.6,722.1,85.9,722.1,84.9 M717.8,87.6v4h-1.3V81.1
		h1.3v1.2c0.3-0.4,0.6-0.8,1-1s0.9-0.3,1.5-0.3c0.9,0,1.7,0.4,2.3,1.1c0.6,0.7,0.9,1.7,0.9,2.9c0,1.2-0.3,2.2-0.9,2.9
		c-0.6,0.7-1.3,1.1-2.3,1.1c-0.6,0-1-0.1-1.5-0.3C718.4,88.4,718.1,88.1,717.8,87.6"/>
	<path class="st0" d="M731.5,84.4v4.4h-1.3v-1.2c-0.3,0.5-0.7,0.8-1.1,1c-0.4,0.2-1,0.3-1.6,0.3c-0.8,0-1.4-0.2-1.9-0.6
		s-0.7-1-0.7-1.8c0-0.9,0.3-1.5,0.9-1.9c0.6-0.4,1.4-0.7,2.6-0.7h1.8v-0.1c0-0.6-0.2-1-0.6-1.3c-0.4-0.3-0.9-0.5-1.6-0.5
		c-0.4,0-0.9,0.1-1.3,0.2c-0.4,0.1-0.8,0.3-1.2,0.5v-1.2c0.4-0.2,0.9-0.3,1.3-0.4c0.4-0.1,0.9-0.1,1.3-0.1c1.1,0,1.9,0.3,2.5,0.9
		C731.2,82.4,731.5,83.2,731.5,84.4 M729,84.9c-1,0-1.7,0.1-2.1,0.4c-0.4,0.2-0.6,0.6-0.6,1.2c0,0.4,0.1,0.8,0.4,1.1
		c0.3,0.3,0.7,0.4,1.2,0.4c0.7,0,1.3-0.2,1.7-0.7c0.4-0.5,0.6-1.1,0.6-2v-0.3H729"/>
	<path class="st0" d="M738.5,82.3c-0.1-0.1-0.3-0.1-0.5-0.2c-0.2,0-0.3-0.1-0.5-0.1c-0.7,0-1.3,0.2-1.6,0.7c-0.4,0.5-0.6,1.1-0.6,2
		v4h-1.3v-7.7h1.3v1.2c0.3-0.5,0.6-0.8,1-1c0.4-0.2,0.9-0.3,1.6-0.3c0.1,0,0.2,0,0.3,0c0.1,0,0.2,0,0.4,0.1V82.3"/>
	<path class="st0" d="M745.8,84.4v4.4h-1.3v-1.2c-0.3,0.5-0.7,0.8-1.1,1c-0.4,0.2-1,0.3-1.6,0.3c-0.8,0-1.4-0.2-1.9-0.6
		s-0.7-1-0.7-1.8c0-0.9,0.3-1.5,0.9-1.9c0.6-0.4,1.4-0.7,2.6-0.7h1.8v-0.1c0-0.6-0.2-1-0.6-1.3c-0.4-0.3-0.9-0.5-1.6-0.5
		c-0.4,0-0.9,0.1-1.3,0.2c-0.4,0.1-0.8,0.3-1.2,0.5v-1.2c0.4-0.2,0.9-0.3,1.3-0.4c0.4-0.1,0.9-0.1,1.3-0.1c1.1,0,1.9,0.3,2.5,0.9
		C745.6,82.4,745.8,83.2,745.8,84.4 M743.3,84.9c-1,0-1.7,0.1-2.1,0.4c-0.4,0.2-0.6,0.6-0.6,1.2c0,0.4,0.1,0.8,0.4,1.1
		c0.3,0.3,0.7,0.4,1.2,0.4c0.7,0,1.3-0.2,1.7-0.7c0.4-0.5,0.6-1.1,0.6-2v-0.3H743.3"/>
	<path class="st0" d="M754.8,84.1v4.6h-1.3v-4.6c0-0.7-0.2-1.3-0.4-1.6c-0.3-0.4-0.7-0.5-1.3-0.5c-0.7,0-1.2,0.2-1.6,0.7
		c-0.4,0.4-0.6,1-0.6,1.8v4.3h-1.3v-7.7h1.3v1.2c0.3-0.4,0.6-0.8,1.1-1c0.4-0.2,0.9-0.4,1.4-0.4c0.9,0,1.5,0.3,2,0.8
		C754.6,82.3,754.8,83.1,754.8,84.1"/>
	<path class="st0" d="M760.3,80.9c1.1,0,1.9,0.4,2.6,1.1c0.6,0.7,0.9,1.7,0.9,3c0,1.3-0.3,2.2-0.9,2.9c-0.6,0.7-1.5,1.1-2.6,1.1
		c-1.1,0-2-0.4-2.6-1.1c-0.6-0.7-0.9-1.7-0.9-2.9c0-1.3,0.3-2.2,0.9-3C758.3,81.3,759.2,80.9,760.3,80.9 M760.3,82
		c-0.7,0-1.2,0.3-1.6,0.8c-0.4,0.5-0.6,1.2-0.6,2.2c0,0.9,0.2,1.6,0.6,2.2c0.4,0.5,0.9,0.8,1.6,0.8c0.7,0,1.2-0.3,1.6-0.8
		c0.4-0.5,0.6-1.2,0.6-2.2c0-0.9-0.2-1.6-0.6-2.2C761.5,82.3,760.9,82,760.3,82"/>
	<path class="st0" d="M771.8,82.6c0.3-0.6,0.7-1,1.1-1.2c0.4-0.3,1-0.4,1.6-0.4c0.8,0,1.4,0.3,1.8,0.8c0.4,0.6,0.7,1.4,0.7,2.4v4.6
		h-1.3v-4.6c0-0.7-0.1-1.3-0.4-1.6c-0.3-0.4-0.7-0.5-1.2-0.5c-0.7,0-1.2,0.2-1.6,0.7s-0.6,1-0.6,1.8v4.3h-1.3v-4.6
		c0-0.7-0.1-1.3-0.4-1.6c-0.3-0.4-0.7-0.5-1.2-0.5c-0.6,0-1.2,0.2-1.5,0.7s-0.6,1-0.6,1.8v4.3h-1.3v-7.7h1.3v1.2
		c0.3-0.5,0.6-0.8,1-1c0.4-0.2,0.9-0.3,1.4-0.3s1,0.1,1.4,0.4C771.4,81.6,771.6,82,771.8,82.6"/>
	<path class="st0" d="M784.8,84.3c0-0.7-0.2-1.2-0.6-1.7c-0.4-0.4-0.9-0.6-1.5-0.6c-0.7,0-1.3,0.2-1.7,0.6c-0.4,0.4-0.7,1-0.7,1.7
		H784.8 M786.1,84.6v0.6h-5.8c0.1,0.9,0.3,1.5,0.8,2c0.5,0.4,1.1,0.7,1.9,0.7c0.5,0,1-0.1,1.4-0.2s0.9-0.3,1.4-0.5v1.2
		c-0.4,0.2-0.9,0.4-1.4,0.4c-0.5,0.1-1,0.1-1.4,0.1c-1.2,0-2.2-0.4-2.9-1.1c-0.7-0.7-1.1-1.7-1.1-2.9c0-1.2,0.3-2.2,1-3
		c0.7-0.7,1.6-1.1,2.7-1.1c1,0,1.8,0.3,2.5,1C785.8,82.6,786.1,83.5,786.1,84.6"/>
	<path class="st0" d="M795.6,78.1c-0.6,1.1-1.1,2.1-1.4,3.1c-0.3,1-0.4,2.1-0.4,3.1c0,1.1,0.1,2.1,0.4,3.1c0.3,1,0.7,2.1,1.4,3.1
		h-1.1c-0.7-1.1-1.2-2.1-1.5-3.2c-0.3-1-0.5-2.1-0.5-3.1c0-1,0.2-2,0.5-3.1c0.3-1,0.8-2.1,1.5-3.2H795.6"/>
	<polyline class="st0" points="797.3,81.1 798.6,81.1 800.1,87.1 801.7,81.1 803.2,81.1 804.8,87.1 806.3,81.1 807.6,81.1 
		805.6,88.8 804.1,88.8 802.4,82.5 800.8,88.8 799.3,88.8 797.3,81.1 	"/>
	<path class="st0" d="M814.8,84.3c0-0.7-0.2-1.2-0.6-1.7c-0.4-0.4-0.9-0.6-1.5-0.6c-0.7,0-1.3,0.2-1.7,0.6c-0.4,0.4-0.7,1-0.7,1.7
		H814.8 M816,84.6v0.6h-5.8c0.1,0.9,0.3,1.5,0.8,2c0.5,0.4,1.1,0.7,1.9,0.7c0.5,0,1-0.1,1.4-0.2s0.9-0.3,1.4-0.5v1.2
		c-0.4,0.2-0.9,0.4-1.4,0.4c-0.5,0.1-1,0.1-1.4,0.1c-1.2,0-2.2-0.4-2.9-1.1c-0.7-0.7-1.1-1.7-1.1-2.9c0-1.2,0.3-2.2,1-3
		c0.7-0.7,1.6-1.1,2.7-1.1c1,0,1.8,0.3,2.5,1C815.7,82.6,816,83.5,816,84.6"/>
	<path class="st0" d="M818.1,78.1h1.3v1.6h-1.3V78.1 M818.1,81.1h1.3v7.7h-1.3V81.1"/>
	<path class="st0" d="M828.3,87.8c0,1.3-0.3,2.3-0.9,2.9c-0.6,0.6-1.5,1-2.7,1c-0.4,0-0.9,0-1.2-0.1c-0.4-0.1-0.8-0.2-1.1-0.3V90
		c0.4,0.2,0.7,0.3,1.1,0.4c0.4,0.1,0.7,0.2,1.1,0.2c0.8,0,1.4-0.2,1.8-0.6c0.4-0.4,0.6-1.1,0.6-1.9v-0.6c-0.3,0.4-0.6,0.8-1,1
		s-0.9,0.3-1.4,0.3c-1,0-1.7-0.4-2.3-1.1c-0.6-0.7-0.9-1.7-0.9-2.9c0-1.2,0.3-2.1,0.9-2.8c0.6-0.7,1.3-1.1,2.3-1.1
		c0.6,0,1,0.1,1.4,0.3s0.7,0.6,1,1v-1.2h1.3V87.8 M827,84.8c0-0.9-0.2-1.6-0.6-2.1c-0.4-0.5-0.9-0.8-1.6-0.8s-1.2,0.3-1.6,0.8
		s-0.6,1.2-0.6,2.1c0,0.9,0.2,1.6,0.6,2.1s0.9,0.8,1.6,0.8s1.2-0.3,1.6-0.8C826.8,86.5,827,85.8,827,84.8"/>
	<path class="st0" d="M837.2,84.1v4.6H836v-4.6c0-0.7-0.2-1.3-0.4-1.6c-0.3-0.4-0.7-0.5-1.3-0.5c-0.7,0-1.2,0.2-1.6,0.7
		c-0.4,0.4-0.6,1-0.6,1.8v4.3h-1.3V78.1h1.3v4.2c0.3-0.4,0.6-0.8,1.1-1c0.4-0.2,0.9-0.4,1.4-0.4c0.9,0,1.5,0.3,2,0.8
		C837,82.3,837.2,83.1,837.2,84.1"/>
	<path class="st0" d="M841,78.9v2.2h2.6v1H841v4.2c0,0.6,0.1,1,0.3,1.2c0.2,0.2,0.5,0.3,1,0.3h1.3v1h-1.3c-1,0-1.7-0.2-2-0.5
		c-0.4-0.4-0.5-1-0.5-2v-4.2h-0.9v-1h0.9v-2.2H841"/>
	<path class="st0" d="M850.5,84.3c0-0.7-0.2-1.2-0.6-1.7c-0.4-0.4-0.9-0.6-1.5-0.6c-0.7,0-1.3,0.2-1.7,0.6c-0.4,0.4-0.7,1-0.7,1.7
		H850.5 M851.8,84.6v0.6H846c0.1,0.9,0.3,1.5,0.8,2c0.5,0.4,1.1,0.7,1.9,0.7c0.5,0,1-0.1,1.4-0.2s0.9-0.3,1.4-0.5v1.2
		c-0.4,0.2-0.9,0.4-1.4,0.4c-0.5,0.1-1,0.1-1.4,0.1c-1.2,0-2.2-0.4-2.9-1.1c-0.7-0.7-1.1-1.7-1.1-2.9c0-1.2,0.3-2.2,1-3
		c0.7-0.7,1.6-1.1,2.7-1.1c1,0,1.8,0.3,2.5,1C851.5,82.6,851.8,83.5,851.8,84.6"/>
	<path class="st0" d="M854.6,84.9c0,0.9,0.2,1.7,0.6,2.2s0.9,0.8,1.6,0.8c0.7,0,1.2-0.3,1.6-0.8c0.4-0.5,0.6-1.3,0.6-2.2
		c0-0.9-0.2-1.6-0.6-2.2c-0.4-0.5-0.9-0.8-1.6-0.8c-0.7,0-1.2,0.3-1.6,0.8C854.8,83.3,854.6,84,854.6,84.9 M858.9,82.3v-4.1h1.3
		v10.6h-1.3v-1.1c-0.3,0.5-0.6,0.8-1,1c-0.4,0.2-0.9,0.3-1.4,0.3c-0.9,0-1.7-0.4-2.3-1.1s-0.9-1.7-0.9-2.9c0-1.2,0.3-2.2,0.9-2.9
		c0.6-0.7,1.3-1.1,2.3-1.1c0.6,0,1,0.1,1.4,0.3S858.6,81.8,858.9,82.3"/>
	<path class="st0" d="M862.5,78.1h1.1c0.7,1.1,1.2,2.1,1.5,3.2c0.3,1,0.5,2.1,0.5,3.1c0,1-0.2,2-0.5,3.1c-0.3,1-0.9,2.1-1.5,3.2
		h-1.1c0.6-1.1,1-2.1,1.4-3.1c0.3-1,0.4-2.1,0.4-3.1c0-1.1-0.2-2.1-0.4-3.1C863.6,80.2,863.1,79.2,862.5,78.1"/>
	<g class="st0">
		<rect x="634.3" y="99.5" class="st16" width="21" height="9.8"/>
		<rect x="634.3" y="99.5" class="st15" width="21" height="9.8"/>
	</g>
	<path class="st0" d="M670.5,99.1h1.6l3.9,10.2h-1.4l-0.9-2.6H669l-0.9,2.6h-1.5L670.5,99.1 M671.3,100.5l-1.9,5.1h3.8L671.3,100.5"
		/>
	<path class="st0" d="M683.7,104.7v4.6h-1.3v-4.6c0-0.7-0.2-1.3-0.4-1.6c-0.3-0.4-0.7-0.5-1.3-0.5c-0.7,0-1.2,0.2-1.6,0.7
		c-0.4,0.4-0.6,1-0.6,1.8v4.3h-1.3v-7.7h1.3v1.2c0.3-0.4,0.6-0.8,1.1-1c0.4-0.2,0.9-0.4,1.4-0.4c0.9,0,1.5,0.3,2,0.8
		C683.5,102.8,683.7,103.6,683.7,104.7"/>
	<path class="st0" d="M691.7,101.9v1.2c-0.4-0.2-0.7-0.3-1.1-0.4c-0.4-0.1-0.7-0.2-1.1-0.2c-0.8,0-1.5,0.3-1.9,0.8s-0.7,1.2-0.7,2.2
		c0,0.9,0.2,1.7,0.7,2.2s1.1,0.8,1.9,0.8c0.4,0,0.7,0,1.1-0.1c0.4-0.1,0.7-0.3,1.1-0.4v1.2c-0.4,0.2-0.7,0.3-1.1,0.4
		c-0.4,0.1-0.8,0.1-1.2,0.1c-1.1,0-2.1-0.4-2.7-1.1c-0.7-0.7-1-1.7-1-2.9c0-1.2,0.3-2.2,1-2.9c0.7-0.7,1.6-1.1,2.8-1.1
		c0.4,0,0.8,0,1.1,0.1C691,101.7,691.4,101.8,691.7,101.9"/>
	<path class="st0" d="M700.3,104.7v4.6H699v-4.6c0-0.7-0.2-1.3-0.4-1.6c-0.3-0.4-0.7-0.5-1.3-0.5c-0.7,0-1.2,0.2-1.6,0.7
		c-0.4,0.4-0.6,1-0.6,1.8v4.3h-1.3V98.7h1.3v4.2c0.3-0.4,0.6-0.8,1.1-1c0.4-0.2,0.9-0.4,1.4-0.4c0.9,0,1.5,0.3,2,0.8
		C700.1,102.8,700.3,103.6,700.3,104.7"/>
	<path class="st0" d="M705.8,101.5c1.1,0,1.9,0.4,2.6,1.1c0.6,0.7,0.9,1.7,0.9,3c0,1.3-0.3,2.2-0.9,2.9c-0.6,0.7-1.5,1.1-2.6,1.1
		c-1.1,0-2-0.4-2.6-1.1c-0.6-0.7-0.9-1.7-0.9-2.9c0-1.3,0.3-2.2,0.9-3C703.8,101.8,704.7,101.5,705.8,101.5 M705.8,102.5
		c-0.7,0-1.2,0.3-1.6,0.8c-0.4,0.5-0.6,1.2-0.6,2.2c0,0.9,0.2,1.6,0.6,2.2c0.4,0.5,0.9,0.8,1.6,0.8c0.7,0,1.2-0.3,1.6-0.8
		c0.4-0.5,0.6-1.2,0.6-2.2c0-0.9-0.2-1.6-0.6-2.2C707,102.8,706.4,102.5,705.8,102.5"/>
	<path class="st0" d="M715.8,102.8c-0.1-0.1-0.3-0.1-0.5-0.2c-0.2,0-0.3-0.1-0.5-0.1c-0.7,0-1.3,0.2-1.6,0.7c-0.4,0.5-0.6,1.1-0.6,2
		v4h-1.3v-7.7h1.3v1.2c0.3-0.5,0.6-0.8,1-1c0.4-0.2,0.9-0.3,1.6-0.3c0.1,0,0.2,0,0.3,0c0.1,0,0.2,0,0.4,0.1V102.8"/>
	<path class="st0" d="M727.1,105.5c0-0.9-0.2-1.6-0.6-2.2c-0.4-0.5-0.9-0.8-1.6-0.8c-0.7,0-1.2,0.3-1.6,0.8
		c-0.4,0.5-0.6,1.2-0.6,2.2c0,0.9,0.2,1.7,0.6,2.2c0.4,0.5,0.9,0.8,1.6,0.8c0.7,0,1.2-0.3,1.6-0.8
		C726.9,107.1,727.1,106.4,727.1,105.5 M722.8,108.2v4h-1.3v-10.6h1.3v1.2c0.3-0.4,0.6-0.8,1-1s0.9-0.3,1.5-0.3
		c0.9,0,1.7,0.4,2.3,1.1c0.6,0.7,0.9,1.7,0.9,2.9c0,1.2-0.3,2.2-0.9,2.9c-0.6,0.7-1.3,1.1-2.3,1.1c-0.6,0-1-0.1-1.5-0.3
		C723.4,109,723.1,108.6,722.8,108.2"/>
	<path class="st0" d="M736.5,104.9v4.4h-1.3v-1.2c-0.3,0.5-0.7,0.8-1.1,1c-0.4,0.2-1,0.3-1.6,0.3c-0.8,0-1.4-0.2-1.9-0.6
		s-0.7-1-0.7-1.8c0-0.9,0.3-1.5,0.9-1.9c0.6-0.4,1.4-0.7,2.6-0.7h1.8v-0.1c0-0.6-0.2-1-0.6-1.3c-0.4-0.3-0.9-0.5-1.6-0.5
		c-0.4,0-0.9,0.1-1.3,0.2c-0.4,0.1-0.8,0.3-1.2,0.5V102c0.4-0.2,0.9-0.3,1.3-0.4c0.4-0.1,0.9-0.1,1.3-0.1c1.1,0,1.9,0.3,2.5,0.9
		C736.2,102.9,736.5,103.8,736.5,104.9 M734,105.5c-1,0-1.7,0.1-2.1,0.4c-0.4,0.2-0.6,0.6-0.6,1.2c0,0.4,0.1,0.8,0.4,1.1
		c0.3,0.3,0.7,0.4,1.2,0.4c0.7,0,1.3-0.2,1.7-0.7c0.4-0.5,0.6-1.1,0.6-2v-0.3H734"/>
	<path class="st0" d="M739.1,98.7h1.3v1.6h-1.3V98.7 M739.1,101.6h1.3v7.7h-1.3V101.6"/>
	<path class="st0" d="M747.4,102.8c-0.1-0.1-0.3-0.1-0.5-0.2c-0.2,0-0.3-0.1-0.5-0.1c-0.7,0-1.3,0.2-1.6,0.7c-0.4,0.5-0.6,1.1-0.6,2
		v4h-1.3v-7.7h1.3v1.2c0.3-0.5,0.6-0.8,1-1c0.4-0.2,0.9-0.3,1.6-0.3c0.1,0,0.2,0,0.3,0c0.1,0,0.2,0,0.4,0.1V102.8"/>
	<path class="st0" d="M753.6,101.9v1.2c-0.4-0.2-0.7-0.3-1.1-0.4c-0.4-0.1-0.8-0.1-1.2-0.1c-0.6,0-1.1,0.1-1.4,0.3
		c-0.3,0.2-0.5,0.5-0.5,0.9c0,0.3,0.1,0.5,0.3,0.7s0.7,0.3,1.3,0.5l0.4,0.1c0.9,0.2,1.5,0.5,1.9,0.8c0.4,0.4,0.6,0.8,0.6,1.5
		c0,0.7-0.3,1.3-0.8,1.7c-0.6,0.4-1.3,0.6-2.3,0.6c-0.4,0-0.8,0-1.3-0.1s-0.9-0.2-1.4-0.4v-1.3c0.5,0.3,0.9,0.4,1.4,0.5
		c0.4,0.1,0.9,0.2,1.3,0.2c0.6,0,1-0.1,1.4-0.3c0.3-0.2,0.5-0.5,0.5-0.9c0-0.3-0.1-0.6-0.4-0.8c-0.2-0.2-0.7-0.4-1.5-0.5l-0.4-0.1
		c-0.8-0.2-1.4-0.4-1.7-0.8c-0.4-0.3-0.5-0.8-0.5-1.4c0-0.7,0.3-1.3,0.8-1.7c0.5-0.4,1.2-0.6,2.2-0.6c0.5,0,0.9,0,1.3,0.1
		C752.9,101.6,753.2,101.7,753.6,101.9"/>
	<path class="st0" d="M634.7,138.9h2.9c2,0,3.5,0.4,4.5,1.3c1,0.8,1.4,2.2,1.4,4c0,1.8-0.5,3.1-1.4,4c-1,0.8-2.4,1.3-4.5,1.3h-2.9
		V138.9 M636.1,140.1v8.2h1.7c1.4,0,2.5-0.3,3.2-1c0.7-0.7,1-1.7,1-3.1c0-1.4-0.3-2.4-1-3.1c-0.7-0.6-1.7-1-3.2-1H636.1"/>
	<path class="st0" d="M645.7,138.5h1.3v1.6h-1.3V138.5 M645.7,141.5h1.3v7.9h-1.3V141.5"/>
	<polyline class="st0" points="648.8,141.5 650.2,141.5 652.6,148.1 655.1,141.5 656.4,141.5 653.5,149.4 651.7,149.4 648.8,141.5 	
		"/>
	<path class="st0" d="M663.7,144.8c0-0.7-0.2-1.3-0.6-1.7c-0.4-0.4-0.9-0.6-1.5-0.6c-0.7,0-1.3,0.2-1.7,0.6s-0.7,1-0.7,1.7H663.7
		 M665,145.1v0.6H659c0.1,0.9,0.3,1.6,0.8,2c0.5,0.5,1.1,0.7,2,0.7c0.5,0,1-0.1,1.4-0.2c0.5-0.1,0.9-0.3,1.4-0.6v1.2
		c-0.5,0.2-0.9,0.4-1.4,0.4c-0.5,0.1-1,0.1-1.5,0.1c-1.3,0-2.3-0.4-3-1.1c-0.7-0.7-1.1-1.7-1.1-3c0-1.3,0.3-2.3,1-3.1
		c0.7-0.7,1.6-1.1,2.8-1.1c1.1,0,1.9,0.3,2.5,1C664.7,143.1,665,144,665,145.1"/>
	<path class="st0" d="M671.7,142.7c-0.1-0.1-0.3-0.1-0.5-0.2c-0.2,0-0.4-0.1-0.6-0.1c-0.7,0-1.3,0.2-1.7,0.7c-0.4,0.5-0.6,1.2-0.6,2
		v4.1H667v-7.9h1.3v1.2c0.3-0.5,0.6-0.8,1.1-1.1c0.4-0.2,1-0.3,1.6-0.3c0.1,0,0.2,0,0.3,0c0.1,0,0.2,0,0.4,0.1V142.7"/>
	<path class="st0" d="M679.5,148.4c0,1.3-0.3,2.3-0.9,3c-0.6,0.6-1.5,1-2.7,1c-0.5,0-0.9,0-1.3-0.1c-0.4-0.1-0.8-0.2-1.2-0.3v-1.3
		c0.4,0.2,0.7,0.3,1.1,0.4s0.7,0.2,1.1,0.2c0.8,0,1.5-0.2,1.9-0.7c0.4-0.4,0.6-1.1,0.6-2V148c-0.3,0.5-0.6,0.8-1,1
		c-0.4,0.2-0.9,0.3-1.5,0.3c-1,0-1.8-0.4-2.3-1.1s-0.9-1.7-0.9-2.9c0-1.2,0.3-2.2,0.9-2.9s1.4-1.1,2.3-1.1c0.6,0,1.1,0.1,1.5,0.3
		c0.4,0.2,0.8,0.6,1,1v-1.2h1.3V148.4 M678.2,145.4c0-0.9-0.2-1.7-0.6-2.2c-0.4-0.5-0.9-0.8-1.6-0.8c-0.7,0-1.2,0.3-1.6,0.8
		s-0.6,1.3-0.6,2.2c0,0.9,0.2,1.7,0.6,2.2s0.9,0.8,1.6,0.8c0.7,0,1.2-0.3,1.6-0.8C678,147,678.2,146.3,678.2,145.4"/>
	<path class="st0" d="M687.6,144.8c0-0.7-0.2-1.3-0.6-1.7c-0.4-0.4-0.9-0.6-1.5-0.6c-0.7,0-1.3,0.2-1.7,0.6s-0.7,1-0.7,1.7H687.6
		 M688.9,145.1v0.6h-5.9c0.1,0.9,0.3,1.6,0.8,2c0.5,0.5,1.1,0.7,2,0.7c0.5,0,1-0.1,1.4-0.2c0.5-0.1,0.9-0.3,1.4-0.6v1.2
		c-0.5,0.2-0.9,0.4-1.4,0.4c-0.5,0.1-1,0.1-1.5,0.1c-1.3,0-2.3-0.4-3-1.1c-0.7-0.7-1.1-1.7-1.1-3c0-1.3,0.3-2.3,1-3.1
		c0.7-0.7,1.6-1.1,2.8-1.1c1.1,0,1.9,0.3,2.5,1C688.6,143.1,688.9,144,688.9,145.1"/>
	<path class="st0" d="M697.6,144.6v4.8h-1.3v-4.7c0-0.7-0.2-1.3-0.4-1.7c-0.3-0.4-0.7-0.6-1.3-0.6c-0.7,0-1.3,0.2-1.7,0.7
		c-0.4,0.4-0.6,1.1-0.6,1.8v4.4H691v-7.9h1.3v1.2c0.3-0.5,0.7-0.8,1.1-1.1c0.4-0.2,0.9-0.4,1.5-0.4c0.9,0,1.6,0.3,2,0.8
		C697.3,142.7,697.6,143.6,697.6,144.6"/>
	<path class="st0" d="M705.8,141.8v1.2c-0.4-0.2-0.7-0.3-1.1-0.4s-0.7-0.2-1.1-0.2c-0.8,0-1.5,0.3-2,0.8s-0.7,1.3-0.7,2.2
		c0,1,0.2,1.7,0.7,2.2c0.5,0.5,1.1,0.8,2,0.8c0.4,0,0.7,0,1.1-0.1s0.7-0.3,1.1-0.5v1.2c-0.4,0.2-0.7,0.3-1.1,0.4
		c-0.4,0.1-0.8,0.1-1.2,0.1c-1.2,0-2.1-0.4-2.8-1.1c-0.7-0.7-1.1-1.7-1.1-3c0-1.3,0.3-2.3,1.1-3s1.7-1.1,2.9-1.1
		c0.4,0,0.8,0,1.2,0.1C705.1,141.6,705.5,141.7,705.8,141.8"/>
	<path class="st0" d="M713.5,144.8c0-0.7-0.2-1.3-0.6-1.7c-0.4-0.4-0.9-0.6-1.5-0.6c-0.7,0-1.3,0.2-1.7,0.6s-0.7,1-0.7,1.7H713.5
		 M714.8,145.1v0.6h-5.9c0.1,0.9,0.3,1.6,0.8,2c0.5,0.5,1.1,0.7,2,0.7c0.5,0,1-0.1,1.4-0.2c0.5-0.1,0.9-0.3,1.4-0.6v1.2
		c-0.5,0.2-0.9,0.4-1.4,0.4c-0.5,0.1-1,0.1-1.5,0.1c-1.3,0-2.3-0.4-3-1.1c-0.7-0.7-1.1-1.7-1.1-3c0-1.3,0.3-2.3,1-3.1
		c0.7-0.7,1.6-1.1,2.8-1.1c1.1,0,1.9,0.3,2.5,1C714.5,143.1,714.8,144,714.8,145.1"/>
	<polyline class="st0" points="720.7,141.5 722,141.5 723.7,147.7 725.3,141.5 726.8,141.5 728.4,147.7 730,141.5 731.3,141.5 
		729.3,149.4 727.7,149.4 726,143 724.3,149.4 722.8,149.4 720.7,141.5 	"/>
	<path class="st0" d="M733.3,138.5h1.3v1.6h-1.3V138.5 M733.3,141.5h1.3v7.9h-1.3V141.5"/>
	<path class="st0" d="M738.6,139.3v2.2h2.7v1h-2.7v4.3c0,0.6,0.1,1.1,0.3,1.2c0.2,0.2,0.5,0.3,1.1,0.3h1.3v1.1h-1.3
		c-1,0-1.7-0.2-2.1-0.6c-0.4-0.4-0.6-1.1-0.6-2v-4.3h-1v-1h1v-2.2H738.6"/>
	<path class="st0" d="M749.5,144.6v4.8h-1.3v-4.7c0-0.7-0.2-1.3-0.4-1.7c-0.3-0.4-0.7-0.6-1.3-0.6c-0.7,0-1.3,0.2-1.7,0.7
		c-0.4,0.4-0.6,1.1-0.6,1.8v4.4h-1.3v-10.9h1.3v4.3c0.3-0.5,0.7-0.8,1.1-1.1c0.4-0.2,0.9-0.4,1.5-0.4c0.9,0,1.6,0.3,2,0.8
		C749.2,142.7,749.5,143.6,749.5,144.6"/>
	<path class="st0" d="M752.4,142h1.5v1.8h-1.5V142 M752.4,147.6h1.5v1.8h-1.5V147.6"/>
	<line class="st17" x1="634.3" y1="166.4" x2="655.3" y2="166.4"/>
	<path class="st0" d="M670.8,160.3c-0.6,1.1-1.1,2.1-1.4,3.1c-0.3,1-0.4,2.1-0.4,3.1c0,1.1,0.1,2.1,0.4,3.1c0.3,1,0.7,2.1,1.4,3.1
		h-1.1c-0.7-1.1-1.2-2.1-1.5-3.2c-0.3-1-0.5-2.1-0.5-3.1c0-1,0.2-2,0.5-3.1c0.3-1,0.8-2.1,1.5-3.2H670.8"/>
	<polyline class="st0" points="673.7,169.8 675.9,169.8 675.9,162 673.5,162.5 673.5,161.2 675.9,160.7 677.3,160.7 677.3,169.8 
		679.5,169.8 679.5,170.9 673.7,170.9 673.7,169.8 	"/>
	<path class="st0" d="M682,160.3h1.1c0.7,1.1,1.2,2.1,1.5,3.2c0.3,1,0.5,2.1,0.5,3.1c0,1-0.2,2-0.5,3.1c-0.3,1-0.9,2.1-1.5,3.2H682
		c0.6-1.1,1-2.1,1.4-3.1c0.3-1,0.4-2.1,0.4-3.1c0-1.1-0.2-2.1-0.4-3.1C683,162.4,682.6,161.4,682,160.3"/>
	<path class="st0" d="M695.3,171.1c-1.3,0-2.2-0.4-3-1.1c-0.7-0.7-1.1-1.8-1.1-3c0-0.7,0.1-1.5,0.4-2.3c0.3-0.8,0.7-1.5,1.2-2.1
		c0.6-0.7,1.2-1.2,1.9-1.6c0.7-0.4,1.5-0.5,2.4-0.5c1.2,0,2.2,0.4,3,1.1c0.7,0.7,1.1,1.8,1.1,3c0,0.8-0.1,1.6-0.4,2.3
		c-0.3,0.8-0.7,1.4-1.2,2.1c-0.6,0.7-1.2,1.2-1.9,1.6S696.2,171.1,695.3,171.1 M697.1,161.7c-0.8,0-1.4,0.2-2,0.6
		c-0.6,0.4-1.1,0.9-1.5,1.7c-0.3,0.5-0.5,1-0.6,1.5c-0.1,0.5-0.2,1.1-0.2,1.6c0,1,0.2,1.7,0.7,2.2c0.4,0.5,1.1,0.8,1.9,0.8
		c0.7,0,1.4-0.2,2-0.6c0.6-0.4,1.1-0.9,1.5-1.7c0.3-0.5,0.5-1,0.6-1.6c0.1-0.5,0.2-1.1,0.2-1.6c0-0.9-0.2-1.7-0.7-2.2
		C698.6,161.9,697.9,161.7,697.1,161.7"/>
	<path class="st0" d="M708,164.5c-0.1-0.1-0.3-0.1-0.4-0.2c-0.2,0-0.3-0.1-0.5-0.1c-0.7,0-1.3,0.3-1.8,0.8c-0.5,0.5-0.8,1.2-1,2
		l-0.8,3.9h-1.3l1.5-7.7h1.3l-0.2,1.2c0.3-0.4,0.7-0.8,1.2-1c0.5-0.2,1-0.4,1.5-0.4c0.1,0,0.3,0,0.4,0c0.1,0,0.3,0,0.4,0.1
		L708,164.5"/>
	<path class="st0" d="M711,171.6c-0.6,1-1.1,1.6-1.4,1.8c-0.4,0.2-0.8,0.4-1.4,0.4h-1l0.2-1.1h0.7c0.3,0,0.6-0.1,0.9-0.3
		c0.2-0.2,0.5-0.6,0.8-1.1l0.4-0.7l-1.7-7.4h1.3l1.3,5.9l3.5-5.9h1.3L711,171.6"/>
	<polyline class="st0" points="717.4,163.3 723.4,163.3 723.2,164.4 717.4,169.9 722.2,169.9 722,170.9 715.8,170.9 716,169.8 
		721.8,164.3 717.2,164.3 717.4,163.3 	"/>
	<path class="st0" d="M729.3,167.1h-1.3c-1,0-1.8,0.1-2.3,0.4c-0.5,0.3-0.7,0.7-0.7,1.3c0,0.4,0.1,0.7,0.4,1c0.3,0.2,0.6,0.3,1,0.3
		c0.7,0,1.3-0.2,1.8-0.7c0.5-0.5,0.9-1.1,1-2L729.3,167.1 M730.7,166.6l-0.9,4.4h-1.3l0.2-1.2c-0.4,0.5-0.8,0.8-1.3,1
		c-0.5,0.2-1,0.3-1.6,0.3c-0.7,0-1.2-0.2-1.6-0.6s-0.6-0.9-0.6-1.5c0-0.9,0.4-1.6,1.1-2.1c0.7-0.5,1.7-0.8,3-0.8h1.8l0.1-0.3
		c0,0,0-0.1,0-0.1c0,0,0-0.1,0-0.2c0-0.4-0.2-0.7-0.5-1s-0.8-0.3-1.4-0.3c-0.4,0-0.8,0.1-1.3,0.2c-0.4,0.1-0.9,0.3-1.3,0.5l0.2-1.2
		c0.5-0.2,0.9-0.3,1.4-0.4c0.4-0.1,0.9-0.1,1.3-0.1c0.9,0,1.6,0.2,2.1,0.6c0.5,0.4,0.7,1,0.7,1.7c0,0.2,0,0.3,0,0.5
		C730.7,166.1,730.7,166.4,730.7,166.6"/>
	<path class="st0" d="M743.3,163.5l-0.2,1.2c-0.3-0.2-0.7-0.3-1.1-0.4c-0.4-0.1-0.7-0.1-1.1-0.1c-0.7,0-1.2,0.1-1.6,0.3
		c-0.4,0.2-0.6,0.5-0.6,0.9c0,0.4,0.4,0.8,1.3,1c0.1,0,0.1,0,0.1,0l0.4,0.1c0.8,0.2,1.4,0.5,1.7,0.7c0.3,0.3,0.4,0.6,0.4,1
		c0,0.8-0.3,1.5-1,2c-0.6,0.5-1.5,0.8-2.5,0.8c-0.4,0-0.8,0-1.3-0.1s-1-0.2-1.5-0.4l0.3-1.3c0.4,0.3,0.9,0.4,1.4,0.5
		c0.4,0.1,0.9,0.2,1.3,0.2c0.6,0,1.1-0.1,1.5-0.4c0.4-0.3,0.6-0.6,0.6-1c0-0.4-0.5-0.8-1.5-1.1l-0.1,0l-0.4-0.1
		c-0.6-0.2-1.1-0.4-1.4-0.7s-0.4-0.6-0.4-1.1c0-0.8,0.3-1.5,0.9-1.9c0.6-0.5,1.4-0.7,2.5-0.7c0.4,0,0.8,0,1.2,0.1
		C742.5,163.3,742.9,163.4,743.3,163.5"/>
	<path class="st0" d="M749.7,167.1h-1.3c-1,0-1.8,0.1-2.3,0.4c-0.5,0.3-0.7,0.7-0.7,1.3c0,0.4,0.1,0.7,0.4,1c0.3,0.2,0.6,0.3,1,0.3
		c0.7,0,1.3-0.2,1.8-0.7c0.5-0.5,0.9-1.1,1-2L749.7,167.1 M751.1,166.6l-0.9,4.4H749l0.2-1.2c-0.4,0.5-0.8,0.8-1.3,1
		c-0.5,0.2-1,0.3-1.6,0.3c-0.7,0-1.2-0.2-1.6-0.6s-0.6-0.9-0.6-1.5c0-0.9,0.4-1.6,1.1-2.1c0.7-0.5,1.7-0.8,3-0.8h1.8l0.1-0.3
		c0,0,0-0.1,0-0.1c0,0,0-0.1,0-0.2c0-0.4-0.2-0.7-0.5-1s-0.8-0.3-1.4-0.3c-0.4,0-0.8,0.1-1.3,0.2c-0.4,0.1-0.9,0.3-1.3,0.5l0.2-1.2
		c0.5-0.2,0.9-0.3,1.4-0.4c0.4-0.1,0.9-0.1,1.3-0.1c0.9,0,1.6,0.2,2.1,0.6c0.5,0.4,0.7,1,0.7,1.7c0,0.2,0,0.3,0,0.5
		C751.2,166.1,751.1,166.4,751.1,166.6"/>
	<path class="st0" d="M758.1,163.3l-0.2,1h-2.5l-0.8,4.2c0,0.2-0.1,0.3-0.1,0.4c0,0.1,0,0.2,0,0.2c0,0.3,0.1,0.5,0.3,0.6
		c0.2,0.1,0.4,0.2,0.8,0.2h1.3l-0.2,1h-1.2c-0.8,0-1.3-0.1-1.7-0.4c-0.4-0.3-0.5-0.7-0.5-1.3c0-0.1,0-0.2,0-0.3s0-0.3,0.1-0.4
		l0.8-4.2H753l0.2-1h1.1l0.4-2.2h1.3l-0.4,2.2H758.1"/>
	<path class="st0" d="M759.6,163.3h1.3l-1.5,7.7h-1.3L759.6,163.3 M760.2,160.3h1.3l-0.3,1.6h-1.3L760.2,160.3"/>
	<polyline class="st0" points="762.5,163.3 763.9,163.3 765,169.8 768.7,163.3 770,163.3 765.6,170.9 763.9,170.9 762.5,163.3 	"/>
	<path class="st0" d="M776,167.1h-1.3c-1,0-1.8,0.1-2.3,0.4c-0.5,0.3-0.7,0.7-0.7,1.3c0,0.4,0.1,0.7,0.4,1c0.3,0.2,0.6,0.3,1,0.3
		c0.7,0,1.3-0.2,1.8-0.7c0.5-0.5,0.9-1.1,1-2L776,167.1 M777.3,166.6l-0.9,4.4h-1.3l0.2-1.2c-0.4,0.5-0.8,0.8-1.3,1
		c-0.5,0.2-1,0.3-1.6,0.3c-0.7,0-1.2-0.2-1.6-0.6s-0.6-0.9-0.6-1.5c0-0.9,0.4-1.6,1.1-2.1c0.7-0.5,1.7-0.8,3-0.8h1.8l0.1-0.3
		c0,0,0-0.1,0-0.1c0,0,0-0.1,0-0.2c0-0.4-0.2-0.7-0.5-1s-0.8-0.3-1.4-0.3c-0.4,0-0.8,0.1-1.3,0.2c-0.4,0.1-0.9,0.3-1.3,0.5l0.2-1.2
		c0.5-0.2,0.9-0.3,1.4-0.4c0.4-0.1,0.9-0.1,1.3-0.1c0.9,0,1.6,0.2,2.1,0.6c0.5,0.4,0.7,1,0.7,1.7c0,0.2,0,0.3,0,0.5
		C777.4,166.1,777.4,166.4,777.3,166.6"/>
	<path class="st0" d="M787.2,160.3c-0.6,1.1-1.1,2.1-1.4,3.1c-0.3,1-0.4,2.1-0.4,3.1c0,1.1,0.1,2.1,0.4,3.1c0.3,1,0.7,2.1,1.4,3.1
		h-1.1c-0.7-1.1-1.2-2.1-1.5-3.2c-0.3-1-0.5-2.1-0.5-3.1c0-1,0.2-2,0.5-3.1c0.3-1,0.8-2.1,1.5-3.2H787.2"/>
	<path class="st0" d="M792.8,160.6c1.1,0,2,0.5,2.6,1.4c0.6,0.9,0.9,2.2,0.9,3.9c0,1.7-0.3,3-0.9,3.9c-0.6,0.9-1.5,1.3-2.6,1.3
		c-1.1,0-2-0.4-2.6-1.3c-0.6-0.9-0.9-2.2-0.9-3.9c0-1.7,0.3-3,0.9-3.9C790.7,161,791.6,160.6,792.8,160.6 M792.8,161.7
		c-0.7,0-1.2,0.3-1.6,1c-0.4,0.7-0.5,1.8-0.5,3.1s0.2,2.5,0.5,3.1c0.4,0.7,0.9,1.1,1.6,1.1c0.7,0,1.2-0.4,1.6-1.1
		c0.3-0.7,0.5-1.8,0.5-3.1s-0.2-2.4-0.5-3.1C794,162,793.5,161.7,792.8,161.7"/>
	<polyline class="st0" points="798.7,169.2 800.2,169.2 800.2,170.9 798.7,170.9 798.7,169.2 	"/>
	<polyline class="st0" points="801.7,160.7 808.3,160.7 808.3,161.3 804.5,170.9 803.1,170.9 806.6,161.9 801.7,161.9 801.7,160.7 	
		"/>
	<path class="st0" d="M815.1,165.4c0.7,0.1,1.2,0.4,1.5,0.9s0.6,1,0.6,1.7c0,1-0.3,1.8-1,2.3c-0.7,0.5-1.7,0.8-3,0.8
		c-0.4,0-0.9,0-1.3-0.1c-0.4-0.1-0.9-0.2-1.4-0.4v-1.3c0.4,0.2,0.8,0.4,1.3,0.5c0.4,0.1,0.9,0.2,1.4,0.2c0.9,0,1.5-0.2,2-0.5
		s0.7-0.8,0.7-1.5c0-0.6-0.2-1.1-0.6-1.4c-0.4-0.3-1-0.5-1.8-0.5h-1.2v-1.1h1.2c0.7,0,1.2-0.1,1.6-0.4c0.4-0.3,0.5-0.7,0.5-1.2
		c0-0.5-0.2-0.9-0.6-1.2c-0.4-0.3-0.9-0.4-1.6-0.4c-0.4,0-0.8,0-1.2,0.1c-0.4,0.1-0.9,0.2-1.4,0.4V161c0.5-0.1,1-0.3,1.5-0.3
		c0.4-0.1,0.9-0.1,1.3-0.1c1,0,1.9,0.2,2.5,0.7c0.6,0.5,0.9,1.1,0.9,1.9c0,0.6-0.2,1-0.5,1.4C816.2,165,815.7,165.3,815.1,165.4"/>
	<polyline class="st0" points="837.3,169.8 839.5,169.8 839.5,162 837.1,162.5 837.1,161.2 839.5,160.7 840.9,160.7 840.9,169.8 
		843.2,169.8 843.2,170.9 837.3,170.9 837.3,169.8 	"/>
	<polyline class="st0" points="845.9,169.2 847.4,169.2 847.4,170.9 845.9,170.9 845.9,169.2 	"/>
	<path class="st0" d="M850.4,160.7h5.4v1.2h-4.2v2.5c0.2-0.1,0.4-0.1,0.6-0.2c0.2,0,0.4-0.1,0.6-0.1c1.1,0,2,0.3,2.7,0.9
		c0.7,0.6,1,1.5,1,2.5c0,1.1-0.3,2-1,2.6c-0.7,0.6-1.7,0.9-2.9,0.9c-0.4,0-0.9,0-1.3-0.1c-0.4-0.1-0.9-0.2-1.4-0.3v-1.4
		c0.4,0.2,0.8,0.4,1.3,0.5c0.4,0.1,0.9,0.2,1.4,0.2c0.8,0,1.4-0.2,1.9-0.6c0.4-0.4,0.7-1,0.7-1.7c0-0.7-0.2-1.3-0.7-1.7
		c-0.5-0.4-1.1-0.6-1.9-0.6c-0.4,0-0.7,0-1.1,0.1c-0.4,0.1-0.7,0.2-1.1,0.4V160.7"/>
	<path class="st0" d="M863.5,165.4c0.7,0.1,1.2,0.4,1.5,0.9s0.6,1,0.6,1.7c0,1-0.3,1.8-1,2.3c-0.7,0.5-1.7,0.8-3,0.8
		c-0.4,0-0.9,0-1.3-0.1c-0.4-0.1-0.9-0.2-1.4-0.4v-1.3c0.4,0.2,0.8,0.4,1.3,0.5c0.4,0.1,0.9,0.2,1.4,0.2c0.9,0,1.5-0.2,2-0.5
		s0.7-0.8,0.7-1.5c0-0.6-0.2-1.1-0.6-1.4c-0.4-0.3-1-0.5-1.8-0.5h-1.2v-1.1h1.2c0.7,0,1.2-0.1,1.6-0.4c0.4-0.3,0.5-0.7,0.5-1.2
		c0-0.5-0.2-0.9-0.6-1.2c-0.4-0.3-0.9-0.4-1.6-0.4c-0.4,0-0.8,0-1.2,0.1c-0.4,0.1-0.9,0.2-1.4,0.4V161c0.5-0.1,1-0.3,1.5-0.3
		c0.4-0.1,0.9-0.1,1.3-0.1c1,0,1.9,0.2,2.5,0.7c0.6,0.5,0.9,1.1,0.9,1.9c0,0.6-0.2,1-0.5,1.4C864.5,165,864.1,165.3,863.5,165.4"/>
	<path class="st0" d="M867.8,160.3h1.1c0.7,1.1,1.2,2.1,1.5,3.2c0.3,1,0.5,2.1,0.5,3.1c0,1-0.2,2-0.5,3.1c-0.3,1-0.9,2.1-1.5,3.2
		h-1.1c0.6-1.1,1-2.1,1.4-3.1c0.3-1,0.4-2.1,0.4-3.1c0-1.1-0.2-2.1-0.4-3.1C868.9,162.4,868.4,161.4,867.8,160.3"/>
	<g class="st0">
		<defs>
			<rect id="SVGID_21_" x="806.8" y="153.7" width="39.4" height="23.7"/>
		</defs>
		<clipPath id="SVGID_22_">
			<use xlink:href="#SVGID_21_"  style="overflow:visible;"/>
		</clipPath>
		<polyline class="st18" points="821.8,166.9 821.8,166.3 824.5,163.6 825.3,164.4 823.7,166 832,166 832,167.1 823.7,167.1 
			825.3,168.7 824.5,169.5 821.8,166.9 		"/>
	</g>
	<path class="st0" d="M212.9,13v5.2h2.5c0.9,0,1.7-0.2,2.1-0.7s0.7-1.1,0.7-1.9c0-0.8-0.3-1.5-0.7-1.9s-1.2-0.7-2.1-0.7H212.9
		 M217.8,19.2c0.4,0.2,0.8,0.5,1.2,0.9c0.4,0.5,0.8,1.1,1.2,1.9l2,4h-2.1l-1.9-3.7c-0.5-1-1-1.6-1.4-1.9c-0.5-0.3-1.1-0.5-1.9-0.5
		h-2.1V26h-2V11.4h4.5c1.7,0,2.9,0.4,3.7,1c0.8,0.7,1.2,1.8,1.2,3.2c0,0.9-0.2,1.7-0.6,2.3C219.2,18.5,218.6,18.9,217.8,19.2"/>
	<path class="st0" d="M233.3,19.8V26h-1.8v-1.7c-0.4,0.7-0.9,1.2-1.5,1.5c-0.6,0.3-1.4,0.5-2.2,0.5c-1.1,0-2-0.3-2.7-0.9
		c-0.7-0.6-1-1.5-1-2.5c0-1.2,0.4-2.1,1.2-2.8c0.8-0.6,2-0.9,3.7-0.9h2.5v-0.2c0-0.8-0.3-1.5-0.8-1.9c-0.5-0.4-1.3-0.7-2.3-0.7
		c-0.6,0-1.2,0.1-1.8,0.2c-0.6,0.2-1.2,0.4-1.7,0.7v-1.7c0.6-0.2,1.3-0.4,1.9-0.6c0.6-0.1,1.2-0.2,1.8-0.2c1.6,0,2.8,0.4,3.5,1.2
		S233.3,18.1,233.3,19.8 M229.7,20.5c-1.5,0-2.5,0.2-3,0.5c-0.6,0.3-0.8,0.9-0.8,1.7c0,0.6,0.2,1.2,0.6,1.5c0.4,0.4,1,0.6,1.7,0.6
		c1,0,1.8-0.3,2.4-1.1c0.6-0.7,0.9-1.6,0.9-2.8v-0.4H229.7"/>
	<path class="st0" d="M238.7,12v3.1h3.7v1.4h-3.7v5.9c0,0.9,0.1,1.5,0.4,1.7c0.2,0.3,0.7,0.4,1.5,0.4h1.8V26h-1.8
		c-1.4,0-2.4-0.3-2.9-0.8c-0.5-0.5-0.8-1.5-0.8-2.8v-5.9h-1.3v-1.4h1.3V12H238.7"/>
	<path class="st0" d="M252.4,19.6c0-1-0.3-1.8-0.8-2.4c-0.5-0.6-1.3-0.9-2.1-0.9c-1,0-1.8,0.3-2.4,0.9s-1,1.4-1,2.4H252.4
		 M254.2,20.1V21h-8.3c0.1,1.2,0.4,2.2,1.1,2.8c0.7,0.6,1.6,1,2.8,1c0.7,0,1.4-0.1,2-0.2c0.6-0.2,1.3-0.4,1.9-0.8v1.7
		c-0.6,0.3-1.3,0.5-2,0.6c-0.7,0.1-1.4,0.2-2.1,0.2c-1.8,0-3.1-0.5-4.2-1.5c-1-1-1.5-2.4-1.5-4.1c0-1.8,0.5-3.2,1.4-4.3
		c1-1,2.3-1.6,3.9-1.6c1.5,0,2.6,0.5,3.5,1.4C253.7,17.2,254.2,18.5,254.2,20.1"/>
	<polyline class="st0" points="256.2,19.7 261.5,19.7 261.5,21.3 256.2,21.3 256.2,19.7 	"/>
	<path class="st0" d="M272.2,15.5v1.7c-0.5-0.3-1-0.5-1.5-0.6c-0.5-0.1-1-0.2-1.5-0.2c-1.2,0-2.1,0.4-2.7,1.1c-0.6,0.7-1,1.8-1,3.1
		c0,1.3,0.3,2.4,1,3.1c0.6,0.7,1.6,1.1,2.7,1.1c0.5,0,1-0.1,1.5-0.2s1-0.4,1.5-0.6v1.7c-0.5,0.2-1,0.4-1.6,0.5
		c-0.5,0.1-1.1,0.2-1.7,0.2c-1.6,0-3-0.5-3.9-1.5c-1-1-1.5-2.4-1.5-4.2c0-1.8,0.5-3.2,1.5-4.2c1-1,2.3-1.5,4-1.5
		c0.6,0,1.1,0.1,1.6,0.2S271.7,15.3,272.2,15.5"/>
	<path class="st0" d="M279.6,14.8c1.6,0,2.8,0.5,3.7,1.5c0.9,1,1.3,2.4,1.3,4.2c0,1.8-0.5,3.2-1.3,4.2c-0.9,1-2.1,1.5-3.7,1.5
		c-1.6,0-2.8-0.5-3.7-1.5c-0.9-1-1.3-2.4-1.3-4.2c0-1.8,0.4-3.2,1.3-4.2C276.7,15.3,278,14.8,279.6,14.8 M279.6,16.3
		c-1,0-1.7,0.4-2.3,1.1c-0.6,0.8-0.8,1.8-0.8,3.1c0,1.3,0.3,2.3,0.8,3.1s1.3,1.1,2.3,1.1c1,0,1.7-0.4,2.3-1.1s0.8-1.8,0.8-3.1
		c0-1.3-0.3-2.3-0.8-3.1C281.3,16.7,280.5,16.3,279.6,16.3"/>
	<path class="st0" d="M293.9,16.7c-0.2-0.1-0.4-0.2-0.7-0.3c-0.2,0-0.5-0.1-0.8-0.1c-1,0-1.8,0.3-2.3,1c-0.6,0.7-0.8,1.6-0.8,2.8V26
		h-1.8V15.1h1.8v1.7c0.4-0.7,0.9-1.2,1.5-1.5c0.6-0.3,1.3-0.5,2.2-0.5c0.1,0,0.3,0,0.4,0c0.1,0,0.3,0,0.5,0.1V16.7"/>
	<path class="st0" d="M302.1,16.7c-0.2-0.1-0.4-0.2-0.7-0.3c-0.2,0-0.5-0.1-0.8-0.1c-1,0-1.8,0.3-2.3,1c-0.6,0.7-0.8,1.6-0.8,2.8V26
		h-1.8V15.1h1.8v1.7c0.4-0.7,0.9-1.2,1.5-1.5c0.6-0.3,1.3-0.5,2.2-0.5c0.1,0,0.3,0,0.4,0c0.1,0,0.3,0,0.5,0.1V16.7"/>
	<path class="st0" d="M311.6,19.6c0-1-0.3-1.8-0.8-2.4c-0.5-0.6-1.3-0.9-2.1-0.9c-1,0-1.8,0.3-2.4,0.9c-0.6,0.6-1,1.4-1,2.4H311.6
		 M313.4,20.1V21h-8.3c0.1,1.2,0.4,2.2,1.1,2.8c0.7,0.6,1.6,1,2.8,1c0.7,0,1.4-0.1,2-0.2c0.6-0.2,1.3-0.4,1.9-0.8v1.7
		c-0.6,0.3-1.3,0.5-2,0.6s-1.4,0.2-2.1,0.2c-1.8,0-3.1-0.5-4.2-1.5c-1-1-1.5-2.4-1.5-4.1c0-1.8,0.5-3.2,1.4-4.3c1-1,2.3-1.6,3.9-1.6
		c1.5,0,2.6,0.5,3.5,1.4C312.9,17.2,313.4,18.5,313.4,20.1"/>
	<path class="st0" d="M324.2,15.5v1.7c-0.5-0.3-1-0.5-1.5-0.6c-0.5-0.1-1-0.2-1.5-0.2c-1.2,0-2.1,0.4-2.7,1.1c-0.6,0.7-1,1.8-1,3.1
		c0,1.3,0.3,2.4,1,3.1c0.6,0.7,1.6,1.1,2.7,1.1c0.5,0,1-0.1,1.5-0.2s1-0.4,1.5-0.6v1.7c-0.5,0.2-1,0.4-1.6,0.5
		c-0.5,0.1-1.1,0.2-1.7,0.2c-1.6,0-3-0.5-3.9-1.5c-1-1-1.5-2.4-1.5-4.2c0-1.8,0.5-3.2,1.5-4.2c1-1,2.3-1.5,4-1.5
		c0.6,0,1.1,0.1,1.6,0.2S323.7,15.3,324.2,15.5"/>
	<path class="st0" d="M329.1,12v3.1h3.7v1.4h-3.7v5.9c0,0.9,0.1,1.5,0.4,1.7c0.2,0.3,0.7,0.4,1.5,0.4h1.8V26h-1.8
		c-1.4,0-2.4-0.3-2.9-0.8c-0.5-0.5-0.8-1.5-0.8-2.8v-5.9H326v-1.4h1.3V12H329.1"/>
	<path class="st0" d="M342.7,19.6c0-1-0.3-1.8-0.8-2.4c-0.5-0.6-1.3-0.9-2.1-0.9c-1,0-1.8,0.3-2.4,0.9c-0.6,0.6-1,1.4-1,2.4H342.7
		 M344.5,20.1V21h-8.3c0.1,1.2,0.4,2.2,1.1,2.8c0.7,0.6,1.6,1,2.8,1c0.7,0,1.4-0.1,2-0.2c0.6-0.2,1.3-0.4,1.9-0.8v1.7
		c-0.6,0.3-1.3,0.5-2,0.6s-1.4,0.2-2.1,0.2c-1.8,0-3.1-0.5-4.2-1.5c-1-1-1.5-2.4-1.5-4.1c0-1.8,0.5-3.2,1.4-4.3c1-1,2.3-1.6,3.9-1.6
		c1.5,0,2.6,0.5,3.5,1.4C344.1,17.2,344.5,18.5,344.5,20.1"/>
	<path class="st0" d="M348.5,20.5c0,1.3,0.3,2.4,0.8,3.1c0.5,0.8,1.3,1.1,2.3,1.1c0.9,0,1.7-0.4,2.2-1.1c0.5-0.8,0.8-1.8,0.8-3.1
		s-0.3-2.3-0.8-3.1c-0.6-0.8-1.3-1.1-2.2-1.1c-1,0-1.7,0.4-2.3,1.1C348.8,18.2,348.5,19.2,348.5,20.5 M354.6,16.7v-5.9h1.8V26h-1.8
		v-1.6c-0.4,0.7-0.9,1.1-1.4,1.4c-0.6,0.3-1.3,0.5-2.1,0.5c-1.3,0-2.4-0.5-3.2-1.6c-0.8-1-1.2-2.4-1.2-4.2c0-1.7,0.4-3.1,1.2-4.2
		c0.8-1,1.9-1.6,3.2-1.6c0.8,0,1.5,0.2,2.1,0.5C353.8,15.6,354.3,16.1,354.6,16.7"/>
	<path class="st0" d="M375,17.2c0.4-0.8,1-1.4,1.6-1.8c0.6-0.4,1.4-0.6,2.2-0.6c1.1,0,2,0.4,2.6,1.2s0.9,1.9,0.9,3.4V26h-1.8v-6.5
		c0-1-0.2-1.8-0.6-2.3c-0.4-0.5-0.9-0.8-1.7-0.8c-0.9,0-1.7,0.3-2.2,0.9s-0.8,1.5-0.8,2.5V26h-1.8v-6.5c0-1-0.2-1.8-0.6-2.3
		c-0.4-0.5-1-0.8-1.7-0.8c-0.9,0-1.7,0.3-2.2,0.9c-0.5,0.6-0.8,1.5-0.8,2.5V26h-1.8V15.1h1.8v1.7c0.4-0.7,0.9-1.2,1.5-1.5
		c0.6-0.3,1.2-0.5,2-0.5c0.8,0,1.5,0.2,2,0.6C374.3,15.8,374.7,16.4,375,17.2"/>
	<path class="st0" d="M386,10.8h1.8v2.3H386V10.8 M386,15.1h1.8V26H386V15.1"/>
	<polyline class="st0" points="400.6,15.1 396.7,20.4 400.8,26 398.7,26 395.5,21.7 392.4,26 390.2,26 394.5,20.3 390.6,15.1 
		392.7,15.1 395.6,19 398.5,15.1 400.6,15.1 	"/>
	<path class="st0" d="M410.9,19.6c0-1-0.3-1.8-0.8-2.4c-0.5-0.6-1.3-0.9-2.1-0.9c-1,0-1.8,0.3-2.4,0.9c-0.6,0.6-1,1.4-1,2.4H410.9
		 M412.7,20.1V21h-8.3c0.1,1.2,0.4,2.2,1.1,2.8c0.7,0.6,1.6,1,2.8,1c0.7,0,1.4-0.1,2-0.2c0.6-0.2,1.3-0.4,1.9-0.8v1.7
		c-0.6,0.3-1.3,0.5-2,0.6s-1.4,0.2-2.1,0.2c-1.8,0-3.1-0.5-4.2-1.5c-1-1-1.5-2.4-1.5-4.1c0-1.8,0.5-3.2,1.4-4.3c1-1,2.3-1.6,3.9-1.6
		c1.5,0,2.6,0.5,3.5,1.4C412.3,17.2,412.7,18.5,412.7,20.1"/>
	<path class="st0" d="M416.8,20.5c0,1.3,0.3,2.4,0.8,3.1c0.5,0.8,1.3,1.1,2.3,1.1c0.9,0,1.7-0.4,2.2-1.1c0.5-0.8,0.8-1.8,0.8-3.1
		s-0.3-2.3-0.8-3.1c-0.6-0.8-1.3-1.1-2.2-1.1c-1,0-1.7,0.4-2.3,1.1C417,18.2,416.8,19.2,416.8,20.5 M422.9,16.7v-5.9h1.8V26h-1.8
		v-1.6c-0.4,0.7-0.9,1.1-1.4,1.4c-0.6,0.3-1.3,0.5-2.1,0.5c-1.3,0-2.4-0.5-3.2-1.6c-0.8-1-1.2-2.4-1.2-4.2c0-1.7,0.4-3.1,1.2-4.2
		c0.8-1,1.9-1.6,3.2-1.6c0.8,0,1.5,0.2,2.1,0.5C422,15.6,422.5,16.1,422.9,16.7"/>
	<polyline class="st0" points="436.2,11.4 438.2,11.4 437,17.6 444.7,11.4 447.3,11.4 438.6,18.4 445,26 442.6,26 436.7,18.9 
		435.4,26 433.4,26 436.2,11.4 	"/>
	<path class="st0" d="M453.5,19.4v1.3c-0.5-0.3-1-0.4-1.5-0.6c-0.5-0.1-0.9-0.2-1.3-0.2c-0.8,0-1.3,0.2-1.8,0.4
		c-0.4,0.3-0.6,0.7-0.6,1.2c0,0.4,0.1,0.8,0.4,1c0.3,0.2,0.8,0.4,1.5,0.6l0.8,0.2c1,0.2,1.8,0.5,2.3,1c0.5,0.5,0.7,1.2,0.7,2
		c0,1-0.3,1.7-1,2.2c-0.7,0.5-1.6,0.8-2.9,0.8c-0.5,0-1-0.1-1.6-0.2c-0.5-0.1-1.1-0.3-1.7-0.5v-1.4c0.6,0.3,1.1,0.6,1.6,0.7
		c0.5,0.2,1.1,0.2,1.6,0.2c0.8,0,1.4-0.2,1.8-0.5c0.4-0.3,0.6-0.7,0.6-1.3c0-0.5-0.2-0.9-0.5-1.2c-0.3-0.3-0.8-0.5-1.5-0.6l-0.8-0.2
		c-1-0.2-1.8-0.5-2.2-1c-0.5-0.4-0.7-1-0.7-1.8c0-0.9,0.3-1.6,1-2.1c0.6-0.5,1.5-0.8,2.6-0.8c0.5,0,1,0,1.5,0.1
		C452.4,19.1,452.9,19.2,453.5,19.4"/>
	<path class="st0" d="M464.7,20.5c0,1.3,0.3,2.4,0.8,3.1c0.5,0.8,1.3,1.1,2.3,1.1c0.9,0,1.7-0.4,2.2-1.1c0.5-0.8,0.8-1.8,0.8-3.1
		s-0.3-2.3-0.8-3.1c-0.6-0.8-1.3-1.1-2.2-1.1c-1,0-1.7,0.4-2.3,1.1C465,18.2,464.7,19.2,464.7,20.5 M470.8,16.7v-5.9h1.8V26h-1.8
		v-1.6c-0.4,0.7-0.9,1.1-1.4,1.4c-0.6,0.3-1.3,0.5-2.1,0.5c-1.3,0-2.4-0.5-3.2-1.6c-0.8-1-1.2-2.4-1.2-4.2c0-1.7,0.4-3.1,1.2-4.2
		c0.8-1,1.9-1.6,3.2-1.6c0.8,0,1.5,0.2,2.1,0.5C470,15.6,470.5,16.1,470.8,16.7"/>
	<path class="st0" d="M476.3,10.8h1.8v2.3h-1.8V10.8 M476.3,15.1h1.8V26h-1.8V15.1"/>
	<path class="st0" d="M488.9,15.4v1.7c-0.5-0.2-1-0.4-1.6-0.6c-0.6-0.1-1.1-0.2-1.7-0.2c-0.9,0-1.6,0.1-2,0.4
		c-0.4,0.3-0.7,0.7-0.7,1.2c0,0.4,0.2,0.7,0.5,1s1,0.5,1.9,0.7l0.6,0.1c1.3,0.3,2.2,0.7,2.7,1.2c0.5,0.5,0.8,1.2,0.8,2.1
		c0,1-0.4,1.8-1.2,2.4c-0.8,0.6-1.9,0.9-3.3,0.9c-0.6,0-1.2-0.1-1.8-0.2c-0.6-0.1-1.3-0.3-2-0.5v-1.9c0.7,0.4,1.3,0.6,2,0.8
		c0.6,0.2,1.3,0.3,1.9,0.3c0.8,0,1.5-0.1,2-0.4c0.4-0.3,0.7-0.7,0.7-1.2c0-0.5-0.2-0.9-0.5-1.1s-1-0.5-2.2-0.8l-0.6-0.1
		c-1.1-0.2-1.9-0.6-2.4-1.1c-0.5-0.5-0.7-1.1-0.7-2c0-1,0.4-1.8,1.1-2.4s1.8-0.8,3.1-0.8c0.7,0,1.3,0.1,1.9,0.2
		C487.8,15.1,488.4,15.2,488.9,15.4"/>
	<path class="st0" d="M494.1,12v3.1h3.7v1.4h-3.7v5.9c0,0.9,0.1,1.5,0.4,1.7c0.2,0.3,0.7,0.4,1.5,0.4h1.8V26h-1.8
		c-1.4,0-2.4-0.3-2.9-0.8c-0.5-0.5-0.8-1.5-0.8-2.8v-5.9H491v-1.4h1.3V12H494.1"/>
	<path class="st0" d="M506.5,16.7c-0.2-0.1-0.4-0.2-0.7-0.3c-0.2,0-0.5-0.1-0.8-0.1c-1,0-1.8,0.3-2.3,1c-0.6,0.7-0.8,1.6-0.8,2.8V26
		h-1.8V15.1h1.8v1.7c0.4-0.7,0.9-1.2,1.5-1.5c0.6-0.3,1.3-0.5,2.2-0.5c0.1,0,0.3,0,0.4,0c0.1,0,0.3,0,0.5,0.1V16.7"/>
	<path class="st0" d="M508.4,10.8h1.8v2.3h-1.8V10.8 M508.4,15.1h1.8V26h-1.8V15.1"/>
	<path class="st0" d="M515.7,16.7c0.4-0.6,0.8-1.1,1.4-1.4c0.6-0.3,1.3-0.5,2.1-0.5c1.3,0,2.4,0.5,3.2,1.6c0.8,1.1,1.2,2.4,1.2,4.2
		c0,1.7-0.4,3.1-1.2,4.2c-0.8,1-1.9,1.6-3.2,1.6c-0.8,0-1.5-0.2-2.1-0.5c-0.6-0.3-1.1-0.8-1.4-1.4V26h-1.8V10.8h1.8V16.7
		 M521.8,20.5c0-1.3-0.3-2.3-0.8-3.1c-0.6-0.8-1.3-1.1-2.2-1.1c-1,0-1.7,0.4-2.2,1.1c-0.6,0.8-0.8,1.8-0.8,3.1s0.3,2.4,0.8,3.1
		c0.5,0.8,1.3,1.1,2.2,1.1c0.9,0,1.7-0.4,2.2-1.1C521.5,22.9,521.8,21.9,521.8,20.5"/>
	<path class="st0" d="M531,14.8L531,14.8 M526.4,21.7v-6.6h1.8v6.6c0,1,0.2,1.8,0.6,2.3c0.4,0.5,1,0.8,1.8,0.8c1,0,1.7-0.3,2.3-0.9
		c0.6-0.6,0.8-1.5,0.8-2.5v-6.2h1.8V26h-1.8v-1.7c-0.4,0.7-1,1.2-1.5,1.5c-0.6,0.3-1.2,0.5-2,0.5c-1.3,0-2.2-0.4-2.9-1.2
		C526.8,24.3,526.4,23.2,526.4,21.7"/>
	<path class="st0" d="M541.1,12v3.1h3.7v1.4h-3.7v5.9c0,0.9,0.1,1.5,0.4,1.7c0.2,0.3,0.7,0.4,1.5,0.4h1.8V26h-1.8
		c-1.4,0-2.4-0.3-2.9-0.8c-0.5-0.5-0.8-1.5-0.8-2.8v-5.9H538v-1.4h1.3V12H541.1"/>
	<path class="st0" d="M547.1,10.8h1.8v2.3h-1.8V10.8 M547.1,15.1h1.8V26h-1.8V15.1"/>
	<path class="st0" d="M556.9,14.8c1.6,0,2.8,0.5,3.7,1.5c0.9,1,1.3,2.4,1.3,4.2c0,1.8-0.5,3.2-1.3,4.2c-0.9,1-2.1,1.5-3.7,1.5
		c-1.6,0-2.8-0.5-3.7-1.5c-0.9-1-1.3-2.4-1.3-4.2c0-1.8,0.4-3.2,1.3-4.2C554.1,15.3,555.4,14.8,556.9,14.8 M556.9,16.3
		c-1,0-1.7,0.4-2.3,1.1c-0.6,0.8-0.8,1.8-0.8,3.1c0,1.3,0.3,2.3,0.8,3.1s1.3,1.1,2.3,1.1c1,0,1.7-0.4,2.3-1.1s0.8-1.8,0.8-3.1
		c0-1.3-0.3-2.3-0.8-3.1C558.7,16.7,557.9,16.3,556.9,16.3"/>
	<path class="st0" d="M574,19.4V26h-1.8v-6.5c0-1-0.2-1.8-0.6-2.3c-0.4-0.5-1-0.8-1.8-0.8c-1,0-1.7,0.3-2.3,0.9s-0.8,1.5-0.8,2.5V26
		h-1.8V15.1h1.8v1.7c0.4-0.6,0.9-1.1,1.5-1.5c0.6-0.3,1.3-0.5,2-0.5c1.2,0,2.2,0.4,2.8,1.2C573.7,16.8,574,17.9,574,19.4"/>
	<path class="st0" d="M589.5,10.8v1.5h-1.7c-0.6,0-1.1,0.1-1.3,0.4c-0.3,0.3-0.4,0.7-0.4,1.4v1h3v1.4h-3V26h-1.8v-9.5h-1.7v-1.4h1.7
		v-0.8c0-1.2,0.3-2.1,0.8-2.7s1.5-0.8,2.7-0.8H589.5"/>
	<path class="st0" d="M595.2,14.8c1.6,0,2.8,0.5,3.7,1.5c0.9,1,1.3,2.4,1.3,4.2c0,1.8-0.5,3.2-1.3,4.2c-0.9,1-2.1,1.5-3.7,1.5
		c-1.6,0-2.8-0.5-3.7-1.5c-0.9-1-1.3-2.4-1.3-4.2c0-1.8,0.4-3.2,1.3-4.2C592.4,15.3,593.7,14.8,595.2,14.8 M595.2,16.3
		c-1,0-1.7,0.4-2.3,1.1c-0.6,0.8-0.8,1.8-0.8,3.1c0,1.3,0.3,2.3,0.8,3.1s1.3,1.1,2.3,1.1c1,0,1.7-0.4,2.3-1.1s0.8-1.8,0.8-3.1
		c0-1.3-0.3-2.3-0.8-3.1C597,16.7,596.2,16.3,595.2,16.3"/>
	<path class="st0" d="M609.6,16.7c-0.2-0.1-0.4-0.2-0.7-0.3c-0.2,0-0.5-0.1-0.8-0.1c-1,0-1.8,0.3-2.3,1c-0.6,0.7-0.8,1.6-0.8,2.8V26
		h-1.8V15.1h1.8v1.7c0.4-0.7,0.9-1.2,1.5-1.5c0.6-0.3,1.3-0.5,2.2-0.5c0.1,0,0.3,0,0.4,0c0.1,0,0.3,0,0.5,0.1V16.7"/>
	<polyline class="st0" points="619.3,11.4 628.5,11.4 628.2,13.1 621,13.1 620.1,17.4 627.1,17.4 626.8,19.1 619.8,19.1 618.8,24.3 
		626.2,24.3 625.9,26 616.5,26 619.3,11.4 	"/>
	<polyline class="st0" points="632.2,10.8 634,10.8 631.1,26 629.3,26 632.2,10.8 	"/>
	<path class="st0" d="M642.9,20.5h-1.8c-1.5,0-2.6,0.2-3.3,0.6c-0.7,0.4-1.1,1-1.1,1.8c0,0.6,0.2,1,0.5,1.4c0.4,0.3,0.9,0.5,1.5,0.5
		c1,0,1.8-0.3,2.5-1c0.7-0.7,1.2-1.6,1.5-2.8L642.9,20.5 M644.9,19.8l-1.2,6.2h-1.8l0.3-1.7c-0.5,0.7-1.1,1.1-1.8,1.5
		c-0.7,0.3-1.4,0.5-2.2,0.5c-0.9,0-1.7-0.3-2.3-0.8c-0.6-0.6-0.9-1.3-0.9-2.2c0-1.3,0.5-2.3,1.5-3c1-0.7,2.4-1.1,4.2-1.1h2.5
		l0.1-0.5c0,0,0-0.1,0-0.2s0-0.2,0-0.3c0-0.6-0.2-1-0.7-1.4c-0.5-0.3-1.1-0.5-2-0.5c-0.6,0-1.2,0.1-1.8,0.2
		c-0.6,0.2-1.3,0.4-1.9,0.7l0.3-1.7c0.7-0.2,1.3-0.4,2-0.6c0.6-0.1,1.3-0.2,1.9-0.2c1.3,0,2.3,0.3,2.9,0.8s1,1.4,1,2.4
		c0,0.2,0,0.5-0.1,0.8C645,19.1,644.9,19.4,644.9,19.8"/>
	<path class="st0" d="M657.6,21h-8.4c0,0.3-0.1,0.5-0.1,0.6c0,0.1,0,0.3,0,0.4c0,0.9,0.3,1.6,0.8,2.1c0.6,0.5,1.3,0.7,2.4,0.7
		c0.8,0,1.5-0.1,2.2-0.3c0.7-0.2,1.4-0.4,2-0.8l-0.3,1.8c-0.7,0.3-1.3,0.5-2,0.6c-0.7,0.1-1.4,0.2-2.1,0.2c-1.5,0-2.7-0.4-3.5-1.1
		c-0.8-0.7-1.2-1.7-1.2-3.1c0-1.1,0.2-2.2,0.6-3.2c0.4-1,1-1.9,1.8-2.6c0.5-0.5,1.1-0.8,1.8-1.1s1.4-0.4,2.2-0.4
		c1.2,0,2.2,0.4,3,1.1c0.7,0.7,1.1,1.7,1.1,3c0,0.3,0,0.6-0.1,1C657.7,20.2,657.7,20.6,657.6,21 M656,19.6c0-0.1,0-0.2,0-0.3
		c0-0.1,0-0.2,0-0.3c0-0.8-0.2-1.4-0.7-1.9c-0.5-0.5-1.1-0.7-1.9-0.7c-0.9,0-1.7,0.3-2.4,0.9c-0.7,0.6-1.2,1.4-1.6,2.4H656"/>
	<path class="st0" d="M661.5,15.1h1.8L661.2,26h-1.8L661.5,15.1 M662.4,10.8h1.8l-0.4,2.3h-1.8L662.4,10.8"/>
	<path class="st0" d="M674.3,15.4l-0.3,1.7c-0.5-0.2-1-0.4-1.5-0.6c-0.5-0.1-1.1-0.2-1.6-0.2c-1,0-1.7,0.2-2.2,0.5
		c-0.5,0.3-0.8,0.8-0.8,1.3c0,0.6,0.6,1.1,1.9,1.5c0.1,0,0.2,0.1,0.2,0.1l0.6,0.2c1.2,0.3,2,0.7,2.4,1.1s0.6,0.9,0.6,1.5
		c0,1.2-0.5,2.1-1.4,2.8c-0.9,0.7-2.1,1.1-3.6,1.1c-0.6,0-1.2-0.1-1.8-0.2c-0.6-0.1-1.4-0.3-2.1-0.5l0.4-1.9
		c0.6,0.4,1.3,0.6,1.9,0.8c0.6,0.2,1.2,0.3,1.8,0.3c0.9,0,1.6-0.2,2.1-0.6c0.5-0.4,0.8-0.9,0.8-1.4c0-0.6-0.7-1.1-2.2-1.5l-0.2,0
		l-0.6-0.2c-0.9-0.2-1.6-0.5-2-0.9c-0.4-0.4-0.6-0.9-0.6-1.5c0-1.2,0.4-2.1,1.3-2.8s2.1-1,3.6-1c0.6,0,1.2,0.1,1.7,0.2
		C673.2,15.1,673.7,15.2,674.3,15.4"/>
	<path class="st0" d="M690.4,19.1c0-0.9-0.2-1.6-0.6-2.1c-0.4-0.5-1-0.7-1.8-0.7c-0.5,0-0.9,0.1-1.4,0.3c-0.4,0.2-0.8,0.5-1.1,0.8
		c-0.5,0.6-0.9,1.2-1.2,2c-0.3,0.8-0.4,1.5-0.4,2.3c0,0.9,0.2,1.6,0.6,2.1c0.4,0.5,1,0.7,1.8,0.7c1.1,0,2.1-0.5,2.9-1.5
		C690,21.9,690.4,20.6,690.4,19.1 M693.1,15.1l-1.9,9.6c-0.4,1.8-1.1,3.2-2.1,4.1c-1,0.9-2.4,1.4-4.1,1.4c-0.6,0-1.2-0.1-1.8-0.1
		c-0.5-0.1-1-0.2-1.5-0.4l0.3-1.7c0.4,0.3,0.9,0.5,1.4,0.6c0.5,0.1,1,0.2,1.6,0.2c1.1,0,2.1-0.3,2.8-0.9c0.7-0.6,1.2-1.5,1.4-2.7
		l0.2-0.8c-0.5,0.6-1.1,1-1.8,1.3c-0.7,0.3-1.4,0.4-2.1,0.4c-1.1,0-2-0.4-2.6-1.1c-0.6-0.7-0.9-1.7-0.9-3c0-1,0.2-2,0.6-3
		c0.4-1,0.9-1.8,1.6-2.6c0.4-0.5,1-0.9,1.6-1.1c0.6-0.3,1.3-0.4,1.9-0.4c0.7,0,1.4,0.2,1.9,0.5c0.5,0.3,0.9,0.8,1.2,1.4l0.3-1.7
		H693.1"/>
	<path class="st0" d="M695.2,21.7l1.3-6.6h1.8l-1.3,6.5c-0.1,0.3-0.1,0.6-0.1,0.8c0,0.2,0,0.4,0,0.6c0,0.6,0.2,1,0.5,1.3
		c0.3,0.3,0.8,0.4,1.4,0.4c1,0,1.8-0.3,2.5-1c0.7-0.6,1.2-1.5,1.4-2.6l1.2-6.1h1.8L703.5,26h-1.8l0.4-1.7c-0.5,0.6-1.1,1.1-1.8,1.5
		c-0.7,0.3-1.4,0.5-2.2,0.5c-1,0-1.7-0.3-2.2-0.8c-0.5-0.5-0.8-1.2-0.8-2.2c0-0.2,0-0.4,0-0.7C695.1,22.3,695.1,22,695.2,21.7"/>
	<path class="st0" d="M709.4,15.1h1.8L709,26h-1.8L709.4,15.1 M710.2,10.8h1.8l-0.4,2.3h-1.8L710.2,10.8"/>
	<path class="st0" d="M723.2,19.4L722,26h-1.8l1.3-6.5c0-0.3,0.1-0.6,0.1-0.8c0-0.2,0.1-0.4,0.1-0.6c0-0.5-0.2-1-0.5-1.3
		c-0.4-0.3-0.8-0.5-1.4-0.5c-1,0-1.8,0.3-2.5,1s-1.2,1.5-1.4,2.6l-1.2,6.1h-1.8l2.1-10.9h1.8l-0.4,1.7c0.5-0.6,1.1-1.1,1.8-1.5
		c0.7-0.3,1.4-0.5,2.2-0.5c1,0,1.7,0.3,2.2,0.8c0.5,0.5,0.8,1.3,0.8,2.2c0,0.2,0,0.5,0,0.7C723.3,18.8,723.3,19.1,723.2,19.4"/>
	<path class="st0" d="M736,21h-8.4c0,0.3-0.1,0.5-0.1,0.6c0,0.1,0,0.3,0,0.4c0,0.9,0.3,1.6,0.8,2.1c0.6,0.5,1.3,0.7,2.4,0.7
		c0.8,0,1.5-0.1,2.2-0.3c0.7-0.2,1.4-0.4,2-0.8l-0.3,1.8c-0.7,0.3-1.3,0.5-2,0.6c-0.7,0.1-1.4,0.2-2.1,0.2c-1.5,0-2.7-0.4-3.5-1.1
		c-0.8-0.7-1.2-1.7-1.2-3.1c0-1.1,0.2-2.2,0.6-3.2c0.4-1,1-1.9,1.8-2.6c0.5-0.5,1.1-0.8,1.8-1.1s1.4-0.4,2.2-0.4
		c1.2,0,2.2,0.4,3,1.1c0.7,0.7,1.1,1.7,1.1,3c0,0.3,0,0.6-0.1,1C736.1,20.2,736,20.6,736,21 M734.4,19.6c0-0.1,0-0.2,0-0.3
		c0-0.1,0-0.2,0-0.3c0-0.8-0.2-1.4-0.7-1.9c-0.5-0.5-1.1-0.7-1.9-0.7c-0.9,0-1.7,0.3-2.4,0.9c-0.7,0.6-1.2,1.4-1.6,2.4H734.4"/>
	<path class="st0" d="M748.3,21h-8.4c0,0.3-0.1,0.5-0.1,0.6c0,0.1,0,0.3,0,0.4c0,0.9,0.3,1.6,0.8,2.1c0.6,0.5,1.3,0.7,2.4,0.7
		c0.8,0,1.5-0.1,2.2-0.3c0.7-0.2,1.4-0.4,2-0.8l-0.3,1.8c-0.7,0.3-1.3,0.5-2,0.6c-0.7,0.1-1.4,0.2-2.1,0.2c-1.5,0-2.7-0.4-3.5-1.1
		c-0.8-0.7-1.2-1.7-1.2-3.1c0-1.1,0.2-2.2,0.6-3.2c0.4-1,1-1.9,1.8-2.6c0.5-0.5,1.1-0.8,1.8-1.1s1.4-0.4,2.2-0.4
		c1.2,0,2.2,0.4,3,1.1c0.7,0.7,1.1,1.7,1.1,3c0,0.3,0,0.6-0.1,1C748.4,20.2,748.3,20.6,748.3,21 M746.7,19.6c0-0.1,0-0.2,0-0.3
		c0-0.1,0-0.2,0-0.3c0-0.8-0.2-1.4-0.7-1.9c-0.5-0.5-1.1-0.7-1.9-0.7c-0.9,0-1.7,0.3-2.4,0.9c-0.7,0.6-1.2,1.4-1.6,2.4H746.7"/>
	<path class="st0" d="M760.5,19.4l-1.3,6.6h-1.8l1.3-6.5c0-0.3,0.1-0.6,0.1-0.8c0-0.2,0.1-0.4,0.1-0.6c0-0.5-0.2-1-0.5-1.3
		c-0.4-0.3-0.8-0.5-1.4-0.5c-1,0-1.8,0.3-2.5,1s-1.2,1.5-1.4,2.6l-1.2,6.1h-1.8l2.1-10.9h1.8l-0.4,1.7c0.5-0.6,1.1-1.1,1.8-1.5
		c0.7-0.3,1.4-0.5,2.2-0.5c1,0,1.7,0.3,2.2,0.8c0.5,0.5,0.8,1.3,0.8,2.2c0,0.2,0,0.5,0,0.7C760.6,18.8,760.6,19.1,760.5,19.4"/>
	<path class="st0" d="M772.1,15.4l-0.3,1.7c-0.5-0.2-1-0.4-1.5-0.6c-0.5-0.1-1.1-0.2-1.6-0.2c-1,0-1.7,0.2-2.2,0.5
		c-0.5,0.3-0.8,0.8-0.8,1.3c0,0.6,0.6,1.1,1.9,1.5c0.1,0,0.2,0.1,0.2,0.1l0.6,0.2c1.2,0.3,2,0.7,2.4,1.1s0.6,0.9,0.6,1.5
		c0,1.2-0.5,2.1-1.4,2.8c-0.9,0.7-2.1,1.1-3.6,1.1c-0.6,0-1.2-0.1-1.8-0.2c-0.6-0.1-1.4-0.3-2.1-0.5l0.4-1.9
		c0.6,0.4,1.3,0.6,1.9,0.8c0.6,0.2,1.2,0.3,1.8,0.3c0.9,0,1.6-0.2,2.1-0.6c0.5-0.4,0.8-0.9,0.8-1.4c0-0.6-0.7-1.1-2.2-1.5l-0.2,0
		l-0.6-0.2c-0.9-0.2-1.6-0.5-2-0.9c-0.4-0.4-0.6-0.9-0.6-1.5c0-1.2,0.4-2.1,1.3-2.8s2.1-1,3.6-1c0.6,0,1.2,0.1,1.7,0.2
		C771,15.1,771.5,15.2,772.1,15.4"/>
	<path class="st0" d="M775.3,15.1h1.8L775,26h-1.8L775.3,15.1 M776.1,10.8h1.8l-0.4,2.3h-1.8L776.1,10.8"/>
	<path class="st0" d="M788,15.4l-0.3,1.7c-0.5-0.2-1-0.4-1.5-0.6c-0.5-0.1-1.1-0.2-1.6-0.2c-1,0-1.7,0.2-2.2,0.5
		c-0.5,0.3-0.8,0.8-0.8,1.3c0,0.6,0.6,1.1,1.9,1.5c0.1,0,0.2,0.1,0.2,0.1l0.6,0.2c1.2,0.3,2,0.7,2.4,1.1s0.6,0.9,0.6,1.5
		c0,1.2-0.5,2.1-1.4,2.8c-0.9,0.7-2.1,1.1-3.6,1.1c-0.6,0-1.2-0.1-1.8-0.2c-0.6-0.1-1.4-0.3-2.1-0.5l0.4-1.9
		c0.6,0.4,1.3,0.6,1.9,0.8c0.6,0.2,1.2,0.3,1.8,0.3c0.9,0,1.6-0.2,2.1-0.6c0.5-0.4,0.8-0.9,0.8-1.4c0-0.6-0.7-1.1-2.2-1.5l-0.2,0
		l-0.6-0.2c-0.9-0.2-1.6-0.5-2-0.9c-0.4-0.4-0.6-0.9-0.6-1.5c0-1.2,0.4-2.1,1.3-2.8s2.1-1,3.6-1c0.6,0,1.2,0.1,1.7,0.2
		C786.9,15.1,787.5,15.2,788,15.4"/>
</g>
</svg>
