<?xml version="1.0" encoding="UTF-8" standalone="no"?><!DOCTYPE svg PUBLIC "-//W3C//DTD SVG 1.1//EN" "http://www.w3.org/Graphics/SVG/1.1/DTD/svg11.dtd"><svg width="100%" height="100%" viewBox="0 0 1130 246" version="1.1" xmlns="http://www.w3.org/2000/svg" xmlns:xlink="http://www.w3.org/1999/xlink" xml:space="preserve" xmlns:serif="http://www.serif.com/" style="fill-rule:evenodd;clip-rule:evenodd;stroke-linejoin:round;stroke-miterlimit:2;"><rect id="logo_ksrates_long" x="0" y="0" width="1129.15" height="245.011" style="fill:none;"/><clipPath id="_clip1"><rect x="0" y="0" width="1129.15" height="245.011"/></clipPath><g clip-path="url(#_clip1)"><g id="KsRates"><path d="M1004.09,179.676l105.173,0c0,-10.389 -5.118,-19.479 -15.354,-27.271c-8.403,-6.111 -19.555,-10.923 -33.458,-14.437c-13.903,-3.514 -25.285,-6.799 -34.146,-9.854c-11.917,-4.125 -21.083,-8.709 -27.5,-13.75c-7.792,-5.959 -11.687,-12.681 -11.687,-20.167c-0,-8.25 2.673,-15.278 8.02,-21.083c5.348,-5.806 11.841,-8.709 19.48,-8.709l103.583,0l-20.396,19.709l-61.417,0.916c-10.847,0 -17.645,0.382 -20.395,1.146c-5.5,1.375 -8.25,4.431 -8.25,9.167c-0,1.986 5.347,5.271 16.041,9.854c9.472,3.819 20.931,7.639 34.375,11.458c21.695,5.653 38.347,12.757 49.959,21.313c14.513,10.847 21.77,24.75 21.77,41.708l0,20.625l-147.065,0l21.267,-20.625Z"/><path d="M978.534,200.301l-67.567,0c-14.973,0 -27.882,-7.028 -38.729,-21.083c-10.848,-14.056 -16.271,-30.708 -16.271,-49.958c-0,-17.875 5.309,-33.153 15.927,-45.834c10.618,-12.68 23.642,-19.021 39.073,-19.021l88.916,0l-21.312,20.396l-61.417,0.229c-8.861,0 -16.614,3.209 -23.26,9.625c-6.646,6.417 -11.191,14.896 -13.636,25.438l104.042,-0l-24.062,24.521l-80.209,-0.917c2.139,10.236 6.684,18.792 13.636,25.667c6.951,6.875 14.781,10.312 23.489,10.312l63.021,0c3.169,0.11 12.39,0.049 19.522,0.017l0.02,-0.017l0.084,0l-21.267,20.625Z"/><path d="M819.55,201.447l-20.854,5.729l-0.458,-122.146l-59.355,0l19.938,-20.625l128.104,0l-21.312,20.625l-46.75,0l0.687,116.417Z" style="fill-rule:nonzero;"/><path d="M626.738,207.176l85.479,-142.541l82.5,135.666l-21.084,5.729l-4.125,-6.187c-2.597,-4.431 -4.048,-7.181 -4.354,-8.25l-27.041,-43.542l-50.188,0l12.604,-20.625l25.209,0l-13.75,-22.687l-52.48,85.708c0,1.375 -1.222,3.819 -3.666,7.333l-2.063,2.521l-27.041,6.875Z" style="fill-rule:nonzero;"/><path d="M505.342,201.864l-31.563,6.25l0.313,-193.125l80.312,-0c16.042,-0 29.844,3.177 41.406,9.531c11.563,6.354 17.344,13.906 17.344,22.656c0,3.75 -1.354,7.604 -4.062,11.563l-9.375,10.625l-20.313,19.062c25,9.584 43.646,22.917 55.938,40c13.333,18.334 20,42.292 20,71.875l-30.625,7.813l1.562,-11.875l0.938,-8.438c-0,-21.458 -9.323,-40 -27.969,-55.625c-18.646,-15.625 -41.094,-23.437 -67.344,-23.437l46.875,-46.563c0.625,-0.625 1.146,-1.875 1.563,-3.75c-0,-3.125 -2.969,-6.458 -8.907,-10c-5.937,-3.541 -11.822,-5.312 -17.656,-5.312l-47.812,-0l-0.625,158.75Z" style="fill-rule:nonzero;"/><path d="M310.446,200.301l20.625,-20.625l109.542,0c-0,-10.389 -5.119,-19.479 -15.355,-27.271c-8.402,-6.111 -19.555,-10.923 -33.458,-14.437c-13.903,-3.514 -25.285,-6.799 -34.146,-9.854c-11.916,-4.125 -21.083,-8.709 -27.5,-13.75c-7.791,-5.959 -11.687,-12.681 -11.687,-20.167c-0,-8.25 2.673,-15.278 8.021,-21.083c5.347,-5.806 11.84,-8.709 19.479,-8.709l103.583,0l-20.396,19.709l-61.416,0.916c-10.848,0 -17.646,0.382 -20.396,1.146c-5.5,1.375 -8.25,4.431 -8.25,9.167c-0,1.986 5.347,5.271 16.041,9.854c9.473,3.819 20.931,7.639 34.375,11.458c21.695,5.653 38.348,12.757 49.959,21.313c14.514,10.847 21.771,24.75 21.771,41.708l-0,20.625l-150.792,0Z" style="fill-rule:nonzero;"/><path d="M188.051,180.009l0.27,-166.583l29.062,0l0,66.563l68.438,-68.125l41.562,-0l-73.437,71.875c27.708,3.75 48.542,15.833 62.5,36.25c12.917,19.166 19.375,44.896 19.375,77.187l-29.063,10.938l0.938,-23.438c-0,-22.916 -7.188,-41.562 -21.563,-55.937c-8.125,-7.917 -17.812,-13.854 -29.062,-17.813c-11.25,-3.958 -24.479,-5.937 -39.688,-5.937l0,93.465l-29.332,-18.445Z" style="fill-rule:nonzero;"/></g><path id="Curve" d="M445.597,244.35l16.419,-20.767c-100.084,0.494 -175.79,7.047 -216.414,4.515c-19.081,-1.189 -45.268,-4.936 -67.243,-12.756c-21.868,-7.781 -30.698,-14.399 -47.007,-32.731c-6.159,-6.923 -8.665,-12.62 -11.431,-17.419c-2.502,-4.341 -5.188,-8.113 -9.462,-11.579c-5.077,-4.117 -10.36,-3.803 -15.254,-1.026c-3.832,2.174 -7.364,6.621 -9.112,8.912c-1.08,1.416 -3.869,6.39 -7.386,11.01c-1.157,1.52 -3.222,3.481 -4.499,4.644c-9.108,-14.131 -13.152,-30.875 -15.666,-47.308c-3.501,-22.885 -5.802,-45.937 -8.655,-68.911c-1.524,-12.279 -2.792,-24.591 -4.475,-36.85c-0.681,-4.963 -1.387,-9.947 -2.676,-14.788c-0.533,-2.003 -1.941,-4.865 -3.454,-6.269c-2.462,-2.285 -5.397,-3.053 -8.652,-2.169c-1.421,0.385 -3.005,1.17 -4.431,2.789c-0.947,1.075 -2.345,3.55 -3.285,7.352c-2.464,9.969 -4.816,34.929 -5.798,46.125c-2.781,31.704 -5.087,63.448 -7.615,95.174c-0.834,10.463 -1.692,20.925 -2.599,31.382c-1.589,18.321 -2.117,24.235 -6.166,37.037l11.148,18.332c0.35,-0.543 0.642,-1.135 0.864,-1.771c8.215,-23.534 8.609,-27.374 10.758,-52.157c3.531,-40.705 6.317,-81.472 9.836,-122.182l0.006,0.049c2.872,23.13 5.194,46.337 8.719,69.377c2.936,19.193 8.003,38.655 18.913,55.015c2.688,4.032 5.81,5.996 8.821,6.862c3.354,0.965 6.853,0.633 10.33,-0.986c3.832,-1.785 7.843,-5.547 11.231,-9.867c3.795,-4.84 6.842,-10.285 7.984,-11.783c0.473,-0.62 1.719,-1.987 2.713,-3.056c2.024,2.235 3.318,4.733 4.838,7.495c2.768,5.032 5.921,10.808 12.002,17.643c18.528,20.827 28.838,27.602 53.405,37.182c10.033,3.913 41.414,12.267 71.974,13.842c38.589,1.989 114.923,-0.362 201.319,-0.362Z"/></g></svg>